<svg width="82" height="64" viewBox="0 0 82 64" fill="none" xmlns="http://www.w3.org/2000/svg">
<path d="M77.5411 27.1913C78.8526 27.1913 79.9455 27.5738 80.7105 28.3934C81.5302 29.1585 81.9127 30.3607 81.9127 31.8907V37.9563H78.8526V32.3825C78.8526 31.5628 78.6887 30.9071 78.3062 30.4699C77.9236 30.0328 77.3772 29.8688 76.7214 29.8688C75.9564 29.8688 75.3007 30.0874 74.8635 30.5792C74.4264 31.071 74.1531 31.7814 74.1531 32.7104V37.9563H71.093V27.3552H74.0439V28.612C74.4264 28.1749 74.9728 27.7923 75.5739 27.5738C76.175 27.3005 76.8307 27.1913 77.5411 27.1913Z" fill="#1D2638"/>
<path d="M63.224 35.6066C63.9891 35.6066 64.6448 35.3333 65.1913 34.7869C65.6831 34.2404 65.9563 33.5301 65.9563 32.6557C65.9563 31.7814 65.6831 31.071 65.1913 30.5246C64.6995 29.9781 64.0437 29.7049 63.224 29.7049C62.459 29.7049 61.8033 29.9781 61.2568 30.5246C60.765 31.071 60.4918 31.7814 60.4918 32.6557C60.4918 33.5301 60.765 34.2404 61.2568 34.7869C61.7486 35.3333 62.4044 35.6066 63.224 35.6066ZM63.224 38.1202C62.0765 38.1202 61.0929 37.9016 60.2186 37.4098C59.3443 36.918 58.6339 36.3169 58.1421 35.4426C57.6503 34.623 57.377 33.694 57.377 32.6011C57.377 31.5628 57.6503 30.5792 58.1421 29.7596C58.6339 28.9399 59.3443 28.2842 60.2186 27.7924C61.0929 27.3006 62.1311 27.082 63.224 27.082C64.3716 27.082 65.3552 27.3006 66.2295 27.7924C67.1038 28.2842 67.8142 28.8852 68.306 29.7596C68.7978 30.5792 69.071 31.5082 69.071 32.6011C69.071 33.6393 68.7978 34.623 68.306 35.4426C67.8142 36.2623 67.1038 36.918 66.2295 37.4098C65.3005 37.9016 64.3169 38.1202 63.224 38.1202Z" fill="#1D2638"/>
<path d="M55.246 27.3552H52.1859V38.0109H55.246V27.3552Z" fill="#1D2638"/>
<path d="M43.4972 34.9508C44.3169 34.9508 44.9726 34.7322 45.5191 34.2404C46.0655 33.7486 46.2841 33.1476 46.2841 32.3279C46.2841 31.5629 46.0109 30.9071 45.5191 30.4153C44.9726 29.9235 44.3169 29.7049 43.4972 29.7049C42.6775 29.7049 42.0218 29.9235 41.4754 30.4153C40.9289 30.9071 40.7103 31.5082 40.7103 32.3279C40.7103 33.0929 40.9836 33.7486 41.4754 34.2404C41.9672 34.6776 42.6775 34.9508 43.4972 34.9508ZM49.2896 27.3552V36.2077C49.2896 38.1749 48.7978 39.5956 47.7595 40.5792C46.7213 41.5082 45.2458 42 43.3333 42C42.295 42 41.3114 41.8907 40.3825 41.6175C39.4535 41.3443 38.6885 41.0164 38.0874 40.5246L39.9999 38.776C40.3278 38.9399 40.6557 39.1038 41.0382 39.2131C41.7486 39.4317 42.4043 39.541 43.1147 39.541C44.2076 39.541 44.9726 39.3224 45.4644 38.8306C45.9562 38.3388 46.2295 37.6284 46.2295 36.6448V36.2077C45.4098 37.082 44.3169 37.5191 42.8415 37.5191C41.8579 37.5191 40.9835 37.3006 40.1639 36.8634C39.3442 36.4262 38.6885 35.8251 38.2513 35.0601C37.7595 34.2951 37.5409 33.3661 37.5409 32.3825C37.5409 31.3443 37.7595 30.47 38.2513 29.7049C38.7431 28.9399 39.3442 28.3388 40.1639 27.9016C40.9835 27.4645 41.8579 27.2459 42.8415 27.2459C44.3715 27.2459 45.5737 27.7377 46.3387 28.776V27.4098H49.2896V27.3552Z" fill="#1D2638"/>
<path d="M30.765 29.541C30.0546 29.541 29.4535 29.7596 29.0163 30.1421C28.5245 30.5246 28.2513 31.071 28.142 31.7814H33.3879C33.2786 31.1257 33.0054 30.5792 32.5136 30.1967C32.0218 29.7049 31.4753 29.541 30.765 29.541ZM36.2841 32.7104C36.2841 32.765 36.2841 33.0383 36.2295 33.5301H28.1967C28.3606 34.1858 28.6885 34.7322 29.2349 35.1148C29.7814 35.4973 30.4371 35.6612 31.2568 35.6612C31.8032 35.6612 32.295 35.5519 32.7322 35.388C32.8961 35.3333 33.06 35.224 33.224 35.1148L34.918 36.9727C33.989 37.7377 32.7322 38.1202 31.1475 38.1202C29.9453 38.1202 28.907 37.9016 27.9781 37.4098C27.0491 36.918 26.3387 36.3169 25.8469 35.4426C25.3551 34.623 25.0819 33.694 25.0819 32.6011C25.0819 31.5628 25.3551 30.6339 25.8469 29.7596C26.3387 28.9399 26.9945 28.2842 27.8688 27.7924C28.7431 27.3006 29.6721 27.082 30.765 27.082C31.8032 27.082 32.7322 27.3006 33.6065 27.7377C34.4262 28.1749 35.1366 28.8306 35.5737 29.6503C36.0655 30.6339 36.2841 31.6175 36.2841 32.7104Z" fill="#1D2638"/>
<path d="M5.68306 29.541C4.97268 29.541 4.37158 29.7596 3.93443 30.1421C3.44262 30.5246 3.1694 31.0711 3.06011 31.7814H8.30601C8.19672 31.1257 7.9235 30.5792 7.43169 30.1967C6.93989 29.7049 6.39344 29.541 5.68306 29.541ZM11.2022 32.7104C11.2022 32.765 11.2022 33.0383 11.1475 33.5301H3.11475C3.27869 34.1858 3.60656 34.7323 4.15301 35.1148C4.69945 35.4973 5.35519 35.6612 6.17486 35.6612C6.72131 35.6612 7.21311 35.5519 7.65027 35.388C7.81421 35.3333 7.97814 35.2241 8.14208 35.1148L9.83607 36.9727C8.9071 37.7377 7.65027 38.1202 6.06557 38.1202C4.86339 38.1202 3.82514 37.9017 2.89617 37.4098C1.96721 36.918 1.25683 36.317 0.765027 35.4426C0.273224 34.6776 0 33.694 0 32.6558C0 31.6175 0.273224 30.6885 0.765027 29.8142C1.25683 28.9945 1.91257 28.3388 2.78689 27.847C3.6612 27.3552 4.59016 27.1366 5.68306 27.1366C6.72131 27.1366 7.65027 27.3552 8.52459 27.7924C9.34426 28.2295 10.0546 28.8853 10.4918 29.7049C10.9836 30.6339 11.2022 31.6175 11.2022 32.7104Z" fill="#1D2638"/>
<path d="M22.9509 23.3115H19.8908V38.0109H22.9509V23.3115Z" fill="#1D2638"/>
<path d="M13.9891 33.7486C14.3716 34.1311 14.9727 34.4044 15.5738 34.4044C16.1749 34.4044 16.7213 34.1311 17.1585 33.7486C17.541 33.3661 17.8142 32.765 17.8142 32.1639C17.8142 31.5628 17.541 30.9617 17.1585 30.5792C16.776 30.1967 16.1749 29.9235 15.5738 29.9235C14.9727 29.9235 14.4262 30.1967 13.9891 30.5792C13.6066 30.9617 13.3333 31.5628 13.3333 32.1639C13.3333 32.765 13.5519 33.3115 13.9891 33.7486Z" fill="#00AEEF"/>
<path d="M52.3497 25.2787C52.6776 25.6066 53.1694 25.8251 53.7158 25.8251C54.2623 25.8251 54.6994 25.6066 55.0819 25.2787C55.4098 24.9508 55.6284 24.459 55.6284 23.9126C55.6284 23.3661 55.4098 22.8743 55.0819 22.5464C54.7541 22.2186 54.2623 22 53.7158 22C53.1694 22 52.7322 22.2186 52.3497 22.5464C52.0218 22.8743 51.8032 23.3661 51.8032 23.9126C51.8032 24.459 52.0218 24.9508 52.3497 25.2787Z" fill="#1D2638"/>
</svg>
