<svg width="57" height="64" viewBox="0 0 57 64" fill="none" xmlns="http://www.w3.org/2000/svg">
<path d="M10.7228 32.9307L10.7298 36.6017C10.7298 37.533 11.1955 37.9987 12.1268 37.9987H12.5342C13.4655 37.9987 13.9311 37.533 13.9311 36.6017V34.7974H16.0847V36.5145C16.0847 38.8718 14.8915 40.065 12.5342 40.065H12.0685C9.71113 40.065 8.51794 38.8718 8.51794 36.7904V27.8267C8.51794 25.1933 9.71113 24 12.0685 24H12.5342C14.8915 24 16.0847 25.1933 16.0847 27.5507L16.0777 32.9307L10.7228 32.9307ZM10.7298 30.8009H13.8729V27.4633C13.8729 26.532 13.4073 26.0664 12.476 26.0664H12.1268C11.1955 26.0664 10.7298 26.532 10.7298 27.4633V30.8009Z" fill="#464547"/>
<path d="M17.5218 24.1746H19.7336V25.1933C20.0785 24.819 20.4968 24.5198 20.9625 24.3145C21.4283 24.1091 21.9313 24.0021 22.4403 24C24.332 24 25.2633 25.2514 25.2633 27.114V36.951C25.2633 38.8136 24.332 40.065 22.4403 40.065C21.9364 40.0652 21.4374 39.9648 20.9727 39.77C20.508 39.5751 20.0867 39.2895 19.7336 38.93V44H17.5218V24.1746ZM19.7336 37.1547C20.292 37.6635 21.0157 37.9529 21.7709 37.9695C22.5858 37.9695 23.0515 37.5913 23.0515 36.6891V27.3761C23.0515 26.4738 22.5858 26.0955 21.7709 26.0955C21.0157 26.1121 20.292 26.4016 19.7336 26.9104V37.1547Z" fill="#464547"/>
<path d="M26.5984 34.419C26.5984 32.4691 27.2387 31.6833 28.9266 31.1013L31.8952 30.0826V27.4633C31.8952 26.532 31.4295 26.0372 30.4982 26.0372H30.1378C29.2065 26.0372 28.7409 26.532 28.7409 27.4633V29.6893H26.5873V27.5507C26.5873 25.1933 27.7805 24 30.1378 24H30.5563C32.9137 24 34.1071 25.1933 34.1071 27.5507V39.8904H31.8952V38.9008C31.5464 39.2681 31.1267 39.5607 30.6614 39.7608C30.1961 39.961 29.695 40.0645 29.1885 40.065C27.4133 40.065 26.5984 39.0463 26.5984 37.3003L26.5984 34.419ZM31.8952 37.242V32.0582L29.8871 32.8184C29.0722 33.1385 28.8103 33.5459 28.8103 34.4481V36.8346C28.8103 37.5913 29.1885 37.9695 29.8871 37.9695C30.5564 37.9695 31.1677 37.7368 31.8952 37.242Z" fill="#464547"/>
<path d="M43.0528 39.8904H40.8409V27.2306C40.8409 26.4448 40.4626 26.0955 39.7932 26.0955C39.182 26.0955 38.5418 26.3283 37.756 26.8813V39.8904H35.5441V24.1746H37.756V25.1933C38.3962 24.5822 39.2403 24 40.4626 24C41.5975 24 42.3544 24.4657 42.7617 25.2806C43.5475 24.6112 44.4788 24 45.7594 24C47.4765 24 48.3496 25.0478 48.3496 26.7649V39.8904H46.1377V27.2306C46.1377 26.4448 45.7594 26.0955 45.09 26.0955C44.4788 26.0955 43.8386 26.3283 43.0528 26.8813V39.8904Z" fill="#464547"/>
<path d="M5.68291 25.6221V28.512L1.96058 32.059L5.68291 35.5426V38.4957L0 33.1537V31.0276L5.68291 25.6221Z" fill="#39C2D7"/>
<path d="M56.8385 31.0276V33.1537L51.1556 38.4957V35.5426L54.8779 32.059L51.1556 28.512V25.6221L56.8385 31.0276Z" fill="#39C2D7"/>
</svg>
