<svg width="132" height="64" viewBox="0 0 132 64" fill="none" xmlns="http://www.w3.org/2000/svg">
<path d="M61.0097 27.8573C59.5111 27.8573 58.2723 28.3569 57.2932 29.3559C56.3341 30.335 55.8146 31.6138 55.8146 33.1124C55.8146 34.6709 56.3541 35.9297 57.4131 36.9088C58.4721 37.8879 59.8508 38.3674 61.5492 38.3674C62.868 38.3674 64.1668 38.0278 65.3257 37.5083V35.4901C64.2067 36.1295 62.888 36.4692 61.5492 36.4692C59.8908 36.4692 58.3122 35.7499 57.9726 33.8317H65.7453C65.8052 33.6519 65.8452 33.1324 65.8452 32.6528C65.8452 31.6937 65.6054 30.4948 64.6063 29.3959C63.7272 28.3968 62.4284 27.8573 61.0097 27.8573ZM60.9498 29.8355C62.2286 29.8355 63.5873 30.6147 63.7871 32.1733H57.9925C58.2923 30.5748 59.591 29.8355 60.9498 29.8355Z" fill="#090A0E"/>
<path d="M95.0496 27.9531C94.0106 27.9531 92.7718 28.3926 92.0125 29.1719V28.1529H89.9344V38.1435H92.0125V33.1282C92.0125 30.7904 93.4711 29.9911 95.1695 29.9911C95.2694 29.9911 95.4093 30.0111 95.5492 30.0311V27.993C95.3693 27.973 95.1495 27.9531 95.0496 27.9531Z" fill="#090A0E"/>
<path d="M72.1522 33.0089L75.8687 28.1335H73.3511L69.6945 33.0489L73.5709 38.1241H76.0286L72.1123 33.0289L72.1522 33.0089Z" fill="#090A0E"/>
<path d="M69.6171 24.0773H67.5391V38.1241H69.6171V24.0773Z" fill="#090A0E"/>
<path d="M42.6281 31.2236V30.6841H36.1142V32.6623H40.4502V35.5795C39.4911 35.9592 38.452 36.159 37.3731 36.159C35.8745 36.159 34.6356 35.6595 33.6566 34.7004C32.7374 33.7612 32.2579 32.6023 32.2579 31.1237C32.2579 29.6651 32.7174 28.5062 33.6566 27.5471C34.5957 26.608 36.0543 26.0885 37.9125 26.0885C39.3712 26.0885 40.7699 26.4282 41.9687 27.0676V24.7897C40.7099 24.2302 39.3512 23.9305 37.9125 23.9305C35.5548 23.9505 33.3968 24.6898 32.098 26.0086C30.7393 27.3673 30 29.1056 30 31.1237C30 33.1418 30.7393 34.8802 32.098 36.2589C33.4567 37.6176 35.275 38.317 37.3531 38.317C39.2513 38.317 41.0496 37.7775 42.6081 36.8383V35.9392V31.2236H42.6281Z" fill="#090A0E"/>
<path d="M53.0535 29.316C52.1543 28.3768 50.8955 27.8573 49.5168 27.8573C48.0182 27.8573 46.7794 28.3569 45.8003 29.3559C44.8412 30.335 44.3217 31.6138 44.3217 33.1124C44.3217 34.6709 44.8612 35.9297 45.9202 36.9088C46.2399 37.1886 46.5796 37.4483 46.9592 37.6481C47.8384 38.1277 48.8774 38.3674 50.0763 38.3674C51.3951 38.3674 52.6938 38.0278 53.8527 37.5083V35.4901C53.593 35.63 53.3332 35.7699 53.0735 35.8698C52.1543 36.2694 51.1153 36.4492 50.0763 36.4492C48.4179 36.4492 46.8393 35.7299 46.4997 33.8117H53.0535H54.2524C54.3123 33.6319 54.3523 33.1124 54.3523 32.6328C54.3523 31.6737 54.1125 30.4749 53.1134 29.3759C53.0934 29.3759 53.0735 29.3559 53.0535 29.316ZM52.2742 32.1733H46.4797C46.7994 30.5948 48.0982 29.8355 49.4369 29.8355C50.7157 29.8355 52.0744 30.6147 52.2742 32.1733Z" fill="#090A0E"/>
<path d="M111.054 28.1335H108.976V38.1241H111.054V28.1335Z" fill="#090A0E"/>
<path d="M110.015 23.7773C109.635 23.7773 109.316 23.8972 109.076 24.1569C108.816 24.4166 108.696 24.7363 108.696 25.1159C108.696 25.4954 108.816 25.8151 109.076 26.0748C109.336 26.3345 109.635 26.4544 110.015 26.4544C110.395 26.4544 110.714 26.3345 110.954 26.0748C111.214 25.8151 111.334 25.4954 111.334 25.1159C111.334 24.7363 111.214 24.4166 110.954 24.1569C110.714 23.8972 110.395 23.7773 110.015 23.7773Z" fill="#090A0E"/>
<path d="M131.576 35.3467C131.576 34.7272 131.416 34.2477 131.117 33.8481C130.497 32.9689 129.298 32.5293 127.98 32.1896C127.44 32.0498 126.841 31.9099 126.401 31.6701C126.041 31.4503 125.862 31.2305 125.862 30.8309H125.822H125.862C125.862 30.1516 126.701 29.8319 127.72 29.8319C128.939 29.8319 130.098 30.1116 131.117 30.6711V28.593C130.058 28.1335 128.899 27.8937 127.72 27.8937C126.661 27.8937 125.562 28.1335 124.843 28.6929C124.123 29.2524 123.824 29.9917 123.824 30.9308C123.824 32.869 125.502 33.6083 127.42 34.0878C127.96 34.2277 128.559 34.3676 128.999 34.6074C129.358 34.8271 129.538 35.0469 129.538 35.4466C129.538 36.1459 128.799 36.4856 127.58 36.4856C126.281 36.4856 125.062 36.2658 123.963 35.8662V37.8043C125.102 38.184 126.321 38.4038 127.58 38.4038C128.719 38.4038 129.738 38.124 130.517 37.5846C130.777 37.4047 130.977 37.1849 131.137 36.9651C131.436 36.5056 131.576 35.9661 131.576 35.3467Z" fill="#090A0E"/>
<path d="M86.3031 30.7709C87.2222 30.0716 87.6618 29.2124 87.6618 28.0335C87.6618 26.9346 87.2222 25.9555 86.4429 25.2162C85.6637 24.4769 84.4848 24.0972 83.3658 24.0972H77.4514V38.124H83.8654C85.0442 38.124 86.2032 37.7444 87.0224 36.9851C87.8216 36.2458 88.2412 35.2467 88.2412 34.1078C88.2412 32.7091 87.5419 31.4303 86.3031 30.7709ZM79.5894 26.0154H83.5856C84.7046 26.0154 85.5438 26.8946 85.5438 28.0135C85.5438 29.1525 84.6846 30.0117 83.5856 30.0117H79.5894V26.0154ZM83.9653 36.2258H79.5894V31.9099H83.9653C85.1242 31.9099 86.0433 32.849 86.0433 34.0678C86.0433 35.2667 85.1242 36.2258 83.9653 36.2258Z" fill="#090A0E"/>
<path d="M117.865 29.7916C118.824 29.7916 119.444 30.1313 119.823 30.6508C120.203 31.1703 120.283 31.8297 120.283 32.3692V38.1238H122.361V32.2893C122.361 31.0704 122.061 30.0314 121.362 29.2321C121.342 29.2122 121.342 29.2122 121.322 29.1922C120.623 28.4129 119.683 27.8734 118.405 27.8734C117.186 27.8734 116.187 28.313 115.467 28.8925V28.1332H113.389V38.1238H115.467V32.3692C115.467 31.8297 115.607 31.2303 115.987 30.7307C116.167 30.5109 116.347 30.3111 116.586 30.1713C116.926 29.9315 117.346 29.7916 117.865 29.7916Z" fill="#090A0E"/>
<path d="M104.563 29.0923C103.684 28.273 102.445 27.8734 101.206 27.8734C99.7675 27.8734 98.5487 28.3729 97.5296 29.392C97.2499 29.6717 97.0101 29.9515 96.8103 30.2712C96.7703 30.3311 96.7304 30.411 96.6904 30.471C96.2308 31.2502 96.011 32.1494 96.011 33.1285C96.011 34.5871 96.5106 35.8459 97.5296 36.8649C98.5487 37.884 99.7675 38.3835 101.206 38.3835C102.465 38.3835 103.704 37.9839 104.563 37.1447V38.1238H106.641V28.1332H104.563V29.0923ZM103.624 35.5062C103.004 36.1256 102.225 36.4254 101.306 36.4254C100.387 36.4254 99.6077 36.1256 98.9882 35.5062C98.3688 34.8668 98.0691 34.0876 98.0691 33.1484C98.0691 32.2093 98.3688 31.4301 98.9882 30.8106C99.6077 30.1713 100.387 29.8715 101.306 29.8715C102.225 29.8715 103.004 30.1713 103.624 30.8106C104.243 31.4301 104.543 32.2093 104.543 33.1484C104.543 34.0876 104.243 34.8668 103.624 35.5062Z" fill="#090A0E"/>
<path d="M13.4017 23.0216C13.0132 23.5514 12.75 24.4057 12.75 25.625V27.1977C12.75 27.7086 12.9239 28.2043 13.243 28.6032L14.774 30.5169C14.8477 30.5058 14.9232 30.5 15 30.5C15.8284 30.5 16.5 31.1716 16.5 32C16.5 32.8284 15.8284 33.5 15 33.5C14.1716 33.5 13.5 32.8284 13.5 32C13.5 31.8073 13.5363 31.623 13.6026 31.4538L12.0717 29.5403C11.5398 28.8753 11.25 28.0492 11.25 27.1977V25.625C11.25 24.2193 11.5493 23.0111 12.1921 22.1346C12.8567 21.2283 13.8369 20.75 15 20.75C16.8815 20.75 18.4917 21.9041 19.1642 23.5418C20.8756 24.0445 22.125 25.6257 22.125 27.5C22.125 27.8788 22.1172 28.2834 22.006 28.6859C23.192 29.3156 24 30.5628 24 32C24 33.4372 23.192 34.6845 22.0059 35.3141C22.1171 35.7166 22.1249 36.1211 22.1249 36.4999C22.1249 38.3742 20.8754 39.9554 19.1641 40.4581C18.4916 42.0957 16.8813 43.2499 14.9999 43.2499C14.51 43.2499 14.0369 43.1713 13.5935 43.0255L14.062 41.6006C14.3561 41.6972 14.6711 41.7499 14.9999 41.7499C16.3574 41.7499 17.5061 40.8476 17.8754 39.6085L18.0075 39.1652L18.463 39.0843C19.6918 38.866 20.6249 37.7911 20.6249 36.4999C20.6249 35.8478 20.5743 35.6094 20.393 35.389C20.1453 35.088 19.8113 34.9752 19.4487 35.0139C19.0688 35.0544 18.6734 35.2648 18.4038 35.6018L17.5224 36.7036C17.5886 36.8729 17.625 37.0572 17.625 37.25C17.625 38.0784 16.9534 38.75 16.125 38.75C15.2966 38.75 14.625 38.0784 14.625 37.25C14.625 36.4216 15.2966 35.75 16.125 35.75C16.2017 35.75 16.2771 35.7558 16.3508 35.7669L17.2325 34.6648C17.7451 34.024 18.5009 33.6065 19.2896 33.5224C19.9366 33.4533 20.6132 33.6109 21.1673 34.0554C21.9529 33.7042 22.5 32.9153 22.5 32C22.5 31.0847 21.9529 30.2957 21.1672 29.9446C20.6131 30.389 19.9366 30.5466 19.2896 30.4775C18.501 30.3933 17.7452 29.9758 17.2326 29.3351L16.351 28.2331C16.2773 28.2442 16.2018 28.25 16.125 28.25C15.2966 28.25 14.625 27.5784 14.625 26.75C14.625 25.9216 15.2966 25.25 16.125 25.25C16.9534 25.25 17.625 25.9216 17.625 26.75C17.625 26.9427 17.5887 27.127 17.5224 27.2962L18.4039 28.398C18.6735 28.735 19.0689 28.9454 19.4488 28.986C19.8113 29.0247 20.1453 28.9119 20.3931 28.6109C20.5744 28.3905 20.625 28.1521 20.625 27.5C20.625 26.2087 19.6919 25.1339 18.4631 24.9156L18.0077 24.8347L17.8755 24.3914C17.5062 23.1522 16.3575 22.25 15 22.25C14.2881 22.25 13.7683 22.5217 13.4017 23.0216Z" fill="#090A0E"/>
<path d="M6.47756 36.7038C6.41135 36.873 6.375 37.0573 6.375 37.25C6.375 38.0784 7.04657 38.75 7.875 38.75C8.70343 38.75 9.375 38.0784 9.375 37.25C9.375 36.4216 8.70343 35.75 7.875 35.75C7.79818 35.75 7.72271 35.7558 7.649 35.7669L6.76743 34.6649C6.25482 34.0242 5.49903 33.6067 4.71043 33.5225C4.06341 33.4534 3.38688 33.611 2.83278 34.0554C2.0471 33.7043 1.5 32.9153 1.5 32C1.5 31.0847 2.04708 30.2958 2.83274 29.9446C3.38683 30.3891 4.06337 30.5467 4.71042 30.4776C5.49906 30.3935 6.25491 29.976 6.76755 29.3352L7.64921 28.2331C7.72285 28.2442 7.79825 28.25 7.875 28.25C8.70343 28.25 9.375 27.5784 9.375 26.75C9.375 25.9216 8.70343 25.25 7.875 25.25C7.04657 25.25 6.375 25.9216 6.375 26.75C6.375 26.9428 6.41137 27.1271 6.47763 27.2964L5.59624 28.3982C5.32662 28.7352 4.9312 28.9456 4.55127 28.9861C4.18875 29.0248 3.85469 28.912 3.60698 28.611C3.42567 28.3906 3.37512 28.1522 3.37512 27.5001C3.37512 26.2089 4.3082 25.134 5.53701 24.9157L5.99246 24.8348L6.12459 24.3915C6.49391 23.1524 7.64263 22.2501 9.00012 22.2501C9.3289 22.2501 9.64389 22.3028 9.93801 22.3994L10.4065 20.9745C9.96306 20.8287 9.49002 20.7501 9.00012 20.7501C7.11866 20.7501 5.50843 21.9043 4.83591 23.5419C3.12457 24.0446 1.87512 25.6258 1.87512 27.5001C1.87512 27.8789 1.88291 28.2834 1.99407 28.6859C0.808044 29.3155 0 30.5628 0 32C0 33.4372 0.808009 34.6844 1.994 35.3141C1.88279 35.7166 1.875 36.1212 1.875 36.5C1.875 38.3743 3.12444 39.9555 4.83578 40.4582C5.50831 42.0958 7.11854 43.25 9 43.25C10.1631 43.25 11.1433 42.7717 11.8079 41.8654C12.4507 40.9889 12.75 39.7807 12.75 38.375V36.8023C12.75 35.9508 12.4602 35.1247 11.9283 34.4597L10.3974 32.5462C10.4637 32.377 10.5 32.1927 10.5 32C10.5 31.1716 9.82843 30.5 9 30.5C8.17157 30.5 7.5 31.1716 7.5 32C7.5 32.8284 8.17157 33.5 9 33.5C9.07682 33.5 9.15229 33.4942 9.226 33.4831L10.757 35.3968C11.0761 35.7957 11.25 36.2914 11.25 36.8023V38.375C11.25 39.5943 10.9868 40.4486 10.5983 40.9784C10.2317 41.4783 9.71191 41.75 9 41.75C7.64251 41.75 6.49379 40.8478 6.12446 39.6086L5.99234 39.1653L5.53689 39.0844C4.30808 38.8661 3.375 37.7913 3.375 36.5C3.375 35.8479 3.42555 35.6095 3.60692 35.3891C3.85466 35.0881 4.18871 34.9753 4.55121 35.014C4.93112 35.0546 5.32651 35.265 5.59612 35.602L6.47756 36.7038Z" fill="#090A0E"/>
</svg>
