<svg width="31" height="64" viewBox="0 0 31 64" fill="none" xmlns="http://www.w3.org/2000/svg">
<path fill-rule="evenodd" clip-rule="evenodd" d="M0.933159 33.5989C1.16454 35.5194 2.11321 37.1622 3.33953 38.4579C7.57383 42.8773 15.3251 46.2555 21.3179 46.1398C23.1227 46.1167 24.9506 45.7002 26.5009 44.5433C28.2363 43.2475 29.2543 41.3965 29.6477 39.4297C30.9434 33.1593 30.365 26.4955 27.2876 20.5489C26.4546 18.9293 25.0895 17.5641 23.2847 16.8006C21.4799 16.0139 19.5594 15.9676 17.8009 16.4766C11.3685 18.3508 6.13926 22.5157 2.48342 27.7912C1.34965 29.434 0.678639 31.447 0.933159 33.5989ZM11.4149 25.3616L11.0678 26.6573H12.5023L11.1835 31.5395C11.0215 32.0023 10.6513 32.2799 10.096 32.2337H9.56379L9.21672 33.5294H9.72576C10.4199 33.5525 11.2066 33.4831 11.8082 32.8815L11.8313 32.8584C12.1784 32.5113 12.4792 32.0717 12.618 31.5164L14.2609 25.3616H11.4149ZM21.3643 30.9379H22.7757L23.1228 29.6653H21.7114L22.4055 27.0738H20.9709L19.5827 32.2336H16.3896C15.0707 32.2336 14.7236 31.4238 14.9319 30.3131C15.1401 29.2025 16.1351 28.3001 17.1069 28.277C17.8936 28.277 18.2869 28.7397 18.2869 29.2719C18.2869 29.4108 18.2638 29.5727 18.2406 29.6421H16.459L16.1119 30.9147H19.3513C19.5132 30.4751 19.6521 29.8967 19.6521 29.457C19.6521 28.115 18.7728 27.0507 17.1763 27.0507C15.0244 27.0507 13.5436 28.9711 13.5436 30.799C13.5436 32.465 14.6311 33.5062 16.3433 33.5062H16.3896H19.2587C19.0115 34.4052 19.5501 35.1513 20.4081 35.2146L16.9449 37.5323L17.2689 38.0413L21.5032 35.2184H21.6651L21.7003 35.0871L23.7244 33.7376L19.467 38.1802L19.9066 38.5967L21.2718 37.139L19.6984 40.5865L20.2306 40.8411L21.9891 37.0464L21.5726 36.8613L24.6037 33.6451L24.2798 33.3443L26.2928 32.0023L25.9689 31.4932L21.9409 34.1889L22.0122 33.9227H20.9941C20.7858 33.8996 20.647 33.7145 20.7164 33.5062L21.3643 30.9379Z" fill="#00C3FF"/>
<path d="M3.33953 38.4579C2.11321 37.1622 1.16454 35.5194 0.933159 33.5989C0.678639 31.447 1.34965 29.434 2.48342 27.7912C6.13926 22.5157 11.3685 18.3508 17.8009 16.4766C19.5594 15.9676 21.4799 16.0139 23.2847 16.8006C25.0895 17.5641 26.4546 18.9293 27.2876 20.5489C30.365 26.4955 30.9434 33.1593 29.6477 39.4297C29.2543 41.3965 28.2363 43.2475 26.5009 44.5433C24.9506 45.7002 23.1227 46.1167 21.3179 46.1398C15.3251 46.2555 7.57383 42.8773 3.33953 38.4579Z" fill="#00C3FF"/>
<path d="M3.17753 36.653C2.13631 35.2647 1.41902 33.5988 1.41902 31.7477C1.41902 29.6653 2.27514 27.8142 3.54774 26.3797C7.6432 21.752 13.1038 18.3507 19.49 17.3095C21.2253 17.0318 23.0533 17.2863 24.6961 18.235C26.3389 19.1837 27.4958 20.6414 28.0974 22.2842C30.3881 28.3233 30.1798 34.7557 28.2131 40.6097C27.6115 42.4376 26.4314 44.1035 24.6267 45.1448C23.007 46.0703 21.2022 46.2554 19.49 46.0703C13.7517 45.4918 6.69454 41.3732 3.17753 36.653Z" fill="#0E0E2B"/>
<path d="M24.2798 33.3443L26.2928 32.0023L25.9689 31.4932L16.9449 37.5323L17.2689 38.0413L23.7244 33.7376L19.467 38.1802L19.9066 38.5967L21.2718 37.139L19.6984 40.5865L20.2306 40.8411L21.9891 37.0464L21.5726 36.8613L24.6037 33.6451L24.2798 33.3443Z" fill="#00C3FF"/>
<path d="M21.3643 30.9379H22.7757L23.1228 29.6653H21.7114L22.4055 27.0738H20.9709L19.5827 32.2336H16.3896C15.0707 32.2336 14.7236 31.4238 14.9319 30.3131C15.1401 29.2025 16.1351 28.3001 17.1069 28.277C17.8936 28.277 18.2869 28.7397 18.2869 29.2719C18.2869 29.4108 18.2638 29.5727 18.2406 29.6421H16.459L16.1119 30.9147H19.3513C19.5132 30.4751 19.6521 29.8967 19.6521 29.457C19.6521 28.115 18.7728 27.0507 17.1763 27.0507C15.0244 27.0507 13.5436 28.9711 13.5436 30.799C13.5436 32.465 14.6311 33.5062 16.3433 33.5062C16.3664 33.5062 16.3664 33.5062 16.3896 33.5062H19.2587C19.0042 34.4317 19.5827 35.1953 20.485 35.2184H21.6651L22.0122 33.9227H20.9941C20.7858 33.8996 20.647 33.7145 20.7164 33.5062L21.3643 30.9379Z" fill="white"/>
<path d="M11.4149 25.3616L11.0678 26.6573H12.5023L11.1835 31.5395C11.0215 32.0023 10.6513 32.2799 10.096 32.2337H9.56379L9.21672 33.5294H9.72576C10.4199 33.5525 11.2066 33.4831 11.8082 32.8815L11.8313 32.8584C12.1784 32.5113 12.4792 32.0717 12.618 31.5164L14.2609 25.3616H11.4149Z" fill="white"/>
</svg>
