<svg width="96" height="41" viewBox="0 0 96 41" fill="none" xmlns="http://www.w3.org/2000/svg">
<path d="M26.9809 22.7384C23.7056 26.547 17.348 24.5034 17.348 19.3702V7.90332H13.0464V19.3702C13.0464 24.985 17.033 28.5527 22.1272 28.5527C23.4685 28.5527 25.9174 28.0298 27.1808 25.9862L27.7329 28.2328H31.2859V7.90332H26.9809V22.7384Z" fill="black"/>
<path d="M63.0536 7.54224C57.0551 7.54224 52.5942 12.1524 52.5942 18.0871C52.5942 23.9806 57.0551 28.6733 63.0536 28.6733C69.0928 28.6733 73.4757 23.9806 73.4757 18.0871C73.4757 12.1524 69.0928 7.54224 63.0536 7.54224ZM63.0536 24.7443C60.0933 24.7443 56.8959 22.5803 56.8959 18.0871C56.8959 13.5974 60.0933 11.5125 63.0536 11.5125C66.0918 11.5125 69.1741 13.5974 69.1741 18.0871C69.1741 22.5769 66.0918 24.7443 63.0536 24.7443Z" fill="black"/>
<path d="M92.1118 21.8162V11.5913H95.8613V7.90318H92.1118V2.24713L87.966 2.72879V7.89974H80.9411V6.37563C80.9411 4.93066 81.7709 3.77123 83.5864 3.68866C84.0606 3.64738 84.5348 3.72995 85.1242 3.84692V0.162231C84.4535 0.0418163 83.8201 0.000531266 83.2308 0.000531266C79.1629 -0.0407538 76.6395 2.32626 76.6395 6.37563V7.89974H73.7977H73.7808V11.5879H76.6361V28.2292H80.9377V11.5913H87.9626V21.9367C87.9626 26.8289 91.2786 28.7521 95.9358 28.2705V24.4619C93.0974 24.9849 92.1118 23.4608 92.1118 21.8162Z" fill="black"/>
<path d="M38.3414 7.90332H33.3251L40.0384 18.0457L33.21 28.2328H37.813L44.6414 18.0491L38.3347 7.90332H38.3414Z" fill="black"/>
<path d="M52.7096 7.90332H48.0523L45.4341 11.9321L47.6628 15.5307L52.7096 7.90332Z" fill="black"/>
<path d="M47.6423 20.5328L45.3052 23.987L48.0928 28.2324H52.7873L47.6491 20.5225L47.6423 20.5328Z" fill="black"/>
<path d="M6.18146 24.2316C5.16194 24.2316 4.33549 23.3921 4.33549 22.3566V2.72897L0 2.24731V22.8382C0 25.8176 2.37775 28.2328 5.31098 28.2328H11.6855V24.2316H6.18146Z" fill="black"/>
<path d="M1.9537 33.3735H2.83435L4.66677 38.6615H3.80306L3.2408 37.0651H1.55741L1.01547 38.6615H0.141602L1.9537 33.3735ZM2.98677 36.3151L2.51596 34.8116L2.4008 34.2715H2.36693L2.25177 34.8116L1.80467 36.3117H2.98677V36.3151Z" fill="black"/>
<path d="M11.4101 35.9458C11.4101 37.2875 10.709 38.6706 8.96125 38.6603H7.22705V33.3723H8.95109C10.6311 33.3655 11.4101 34.6453 11.4101 35.9458ZM10.5938 36.0043C10.5938 35.0754 10.1095 34.1602 8.96802 34.1602H8.05012V37.8827H8.95109C10.1467 37.9034 10.5938 36.9504 10.5938 36.0043Z" fill="black"/>
<path d="M14.5869 36.0352L16.2602 38.6603H15.2779L14.0348 36.6338L12.7918 38.6603H11.8027L13.4861 36.0352L11.8197 33.3723H12.7952L14.0382 35.3987L15.2813 33.3723H16.2568L14.5869 36.0352Z" fill="black"/>
<path d="M20.5518 34.6765C20.1623 34.2499 19.6576 34.0469 19.1665 34.0607C18.0114 34.0848 17.4187 35.0894 17.4187 36.0493C17.4187 37.0022 18.025 37.9931 19.1665 37.9931C19.6847 37.9931 20.2706 37.7385 20.6602 37.25L21.2394 37.7144C20.6906 38.4059 19.9963 38.7741 19.1665 38.7741C17.4831 38.7741 16.5889 37.4151 16.5889 36.0493C16.5889 34.6834 17.4831 33.29 19.1665 33.29C19.9116 33.29 20.5687 33.5377 21.0734 34.1742L20.5518 34.6765Z" fill="black"/>
<path d="M26.6455 33.3723V34.1602H25.4532V38.6603H24.6234V34.1602H23.4243V33.3723H26.6455Z" fill="black"/>
<path d="M29.352 37.4978L29.9075 37.866C29.4807 38.4577 28.9252 38.7226 28.319 38.7226C27.0691 38.7226 26.4425 37.7318 26.4493 36.7513C26.4493 35.7673 27.0996 34.7799 28.3122 34.7696C29.5383 34.7627 30.2902 35.8877 30.0735 37.0953H27.2351C27.3231 37.5666 27.7059 37.9967 28.319 37.9967C28.6441 37.9932 29.0506 37.9348 29.352 37.4978ZM29.3452 36.4691C29.3249 35.8017 28.8101 35.4852 28.2986 35.4852C27.7499 35.4852 27.2656 35.8292 27.252 36.4691H29.3452Z" fill="black"/>
<path d="M33.6403 35.9085C33.3524 35.6161 33.0204 35.5335 32.7088 35.5335C32.1466 35.5266 31.6046 35.9532 31.5978 36.7789C31.5978 37.4326 31.9874 38.0003 32.7156 38.0003C33.0678 38.0003 33.3219 37.9108 33.6606 37.5943L34.1077 38.0966C33.7182 38.5026 33.227 38.7434 32.7156 38.7434C31.4658 38.7434 30.8154 37.7973 30.8154 36.7617C30.8222 35.7261 31.4928 34.7904 32.7156 34.78C33.227 34.78 33.6674 34.9761 34.0806 35.3959L33.6403 35.9085Z" fill="black"/>
<path d="M35.6823 33.3723V35.1269C35.9634 34.8792 36.319 34.7966 36.5629 34.7966C37.4944 34.7966 38.1887 35.3884 38.1887 36.4412V38.6602H37.4029V36.4412C37.4029 35.8425 36.9558 35.5329 36.4511 35.5191C36.1903 35.5123 35.9092 35.6258 35.6789 35.7737V38.6637H34.8931V33.3723H35.6823Z" fill="black"/>
<path d="M39.8857 34.859L39.9873 35.3235C40.2176 34.9416 40.6647 34.7971 40.912 34.7971C41.9383 34.7971 42.5717 35.3958 42.5717 36.4485V38.6607H41.7859V36.4485C41.7859 35.4886 40.6173 35.1962 40.0246 35.9325V38.6641H39.2388V34.8625H39.8857V34.859Z" fill="black"/>
<path d="M45.2511 38.7431C44.1537 38.7431 43.3374 37.8658 43.3374 36.7614C43.3374 35.6501 44.1537 34.79 45.2511 34.79C46.3553 34.79 47.1581 35.6536 47.1581 36.7614C47.1547 37.8658 46.3553 38.7431 45.2511 38.7431ZM45.2511 38.0068C45.8066 38.0068 46.3689 37.6009 46.3689 36.7614C46.3689 35.9219 45.8066 35.5297 45.2511 35.5297C44.7092 35.5297 44.1266 35.9185 44.1266 36.7614C44.1266 37.6043 44.7092 38.0068 45.2511 38.0068Z" fill="black"/>
<path d="M49.2848 38.6671C48.4177 38.7635 47.957 38.3678 47.957 37.4905V33.3723H48.7428V37.4905C48.7428 37.8001 48.8445 37.9722 49.2848 37.9343V38.6671Z" fill="black"/>
<path d="M51.6383 38.7431C50.5409 38.7431 49.7246 37.8658 49.7246 36.7614C49.7246 35.6501 50.5409 34.79 51.6383 34.79C52.7425 34.79 53.5453 35.6536 53.5453 36.7614C53.5453 37.8658 52.7425 38.7431 51.6383 38.7431ZM51.6383 38.0068C52.1938 38.0068 52.7561 37.6009 52.7561 36.7614C52.7561 35.9219 52.1938 35.5297 51.6383 35.5297C51.0964 35.5297 50.5104 35.9185 50.5104 36.7614C50.5104 37.6043 51.0964 38.0068 51.6383 38.0068Z" fill="black"/>
<path d="M55.8691 34.8212C56.1435 34.8143 56.5127 34.9037 56.743 35.2271L56.8819 34.859H57.4882V38.6332C57.4882 39.6756 56.6956 40.1779 55.8488 40.1779C55.2933 40.1779 54.7141 39.9543 54.3246 39.5105L54.7277 38.9944C55.0393 39.3316 55.4119 39.4898 55.8251 39.4967C56.2959 39.5036 56.7261 39.2868 56.7261 38.6263V38.3854C56.4653 38.6641 56.1773 38.7157 55.8894 38.7226C54.9004 38.7364 54.2061 37.8075 54.2061 36.7788C54.2094 35.609 54.9817 34.8349 55.8691 34.8212ZM56.7227 37.663V35.8774C56.5364 35.6365 56.2756 35.5333 56.0453 35.5333C55.4898 35.5402 54.9749 35.9393 54.9749 36.7547C54.9749 37.4359 55.3136 38.0139 55.9504 38.0139C56.2654 38.0173 56.4619 37.9623 56.7227 37.663Z" fill="black"/>
<path d="M58.5622 39.4415C59.0093 39.4931 59.1685 39.3005 59.2396 39.1044L59.4631 38.5333L57.9897 34.8589H58.8331L59.873 37.5906L60.8044 34.8589H61.6478L59.9509 39.3899C59.6901 40.0574 59.1346 40.164 58.552 40.0952L58.5622 39.4415Z" fill="black"/>
<path d="M67.833 34.6765C67.4435 34.2499 66.9388 34.0469 66.4477 34.0607C65.2927 34.0848 64.7 35.0894 64.7 36.0493C64.7 37.0022 65.3063 37.9931 66.4477 37.9931C66.9659 37.9931 67.5519 37.7385 67.9414 37.25L68.5206 37.7144C67.9719 38.4059 67.2776 38.7741 66.4477 38.7741C64.7643 38.7741 63.8701 37.4151 63.8701 36.0493C63.8701 34.6834 64.7643 33.29 66.4477 33.29C67.1929 33.29 67.8466 33.5377 68.3547 34.1742L67.833 34.6765Z" fill="black"/>
<path d="M70.9655 38.7431C69.8681 38.7431 69.0518 37.8658 69.0518 36.7614C69.0518 35.6501 69.8681 34.79 70.9655 34.79C72.0697 34.79 72.8724 35.6536 72.8724 36.7614C72.8724 37.8658 72.0697 38.7431 70.9655 38.7431ZM70.9655 38.0068C71.521 38.0068 72.0832 37.6009 72.0832 36.7614C72.0832 35.9219 71.521 35.5297 70.9655 35.5297C70.4235 35.5297 69.841 35.9185 69.841 36.7614C69.841 37.6043 70.4235 38.0068 70.9655 38.0068Z" fill="black"/>
<path d="M76.4971 35.4439C76.7647 34.9725 77.2253 34.8074 77.6589 34.8074C78.5124 34.8074 79.2102 35.234 79.2102 36.4485V38.6606H78.4379V36.4313C78.4379 35.7638 78.0687 35.5092 77.6589 35.5092C77.2389 35.5092 76.8798 35.7707 76.8731 36.4106V38.6606H76.1211V36.4106C76.1719 35.3682 75.1016 35.1961 74.5529 35.8189V38.6606H73.7671V34.859H74.4174L74.519 35.2649C74.7493 34.8831 75.1964 34.8143 75.4437 34.8143C75.8603 34.8108 76.3074 35.0069 76.4971 35.4439Z" fill="black"/>
<path d="M81.8756 38.7188C81.5809 38.7119 81.2761 38.6603 81.0322 38.3506V40.1053H80.2803V34.8552H80.9238L81.039 35.2233C81.2693 34.9446 81.5741 34.8242 81.9399 34.8242C82.7698 34.8242 83.5929 35.4779 83.5929 36.7749C83.5929 37.8036 82.8646 38.736 81.8756 38.7188ZM82.8274 36.7543C82.8274 35.846 82.2787 35.5398 81.7232 35.5329C81.4929 35.5329 81.2253 35.6155 81.0458 35.8563V37.5903C81.2185 37.9275 81.5301 38.0032 81.818 38.0032C82.4514 37.9997 82.8274 37.4389 82.8274 36.7543Z" fill="black"/>
<path d="M86.8485 38.6606L86.7198 38.203C86.4522 38.6227 86.0999 38.7122 85.6799 38.7122C84.7044 38.7122 84.2573 38.0447 84.2573 37.391C84.2573 36.6857 84.806 36.063 85.9475 36.1078C86.1778 36.1146 86.547 36.1766 86.7062 36.3314V36.18C86.7062 35.5642 86.2456 35.4059 85.812 35.4162C85.4225 35.4231 85.1109 35.5435 84.8026 35.7396L84.4843 35.2236C85.4869 34.3291 87.4582 34.5492 87.4582 36.1834V38.6606H86.8485ZM86.713 37.6491V37.0023C86.5267 36.8371 86.2354 36.7546 85.961 36.7477C85.4699 36.7339 85.0093 36.9197 85.0093 37.3945C85.0093 37.8211 85.2633 38.0172 85.8696 38.0172C86.1507 38.0172 86.5165 37.8658 86.713 37.6491Z" fill="black"/>
<path d="M89.1508 34.859L89.2525 35.3235C89.4828 34.9416 89.9299 34.7971 90.1771 34.7971C91.2034 34.7971 91.8368 35.3958 91.8368 36.4485V38.6607H91.051V36.4485C91.051 35.4886 89.8825 35.1962 89.2897 35.9325V38.6641H88.5039V34.8625H89.1508V34.859Z" fill="black"/>
<path d="M92.9142 39.4415C93.3613 39.4931 93.5205 39.3005 93.5916 39.1044L93.8152 38.5333L92.3418 34.8589H93.1852L94.225 37.5906L95.1565 34.8589H95.9999L94.3029 39.3899C94.0421 40.0574 93.4866 40.164 92.9041 40.0952L92.9142 39.4415Z" fill="black"/>
</svg>
