<svg width="90" height="64" viewBox="0 0 90 64" fill="none" xmlns="http://www.w3.org/2000/svg">
<path d="M64.5217 24.0267H62.4453V38.1376H64.5217V24.0267Z" fill="#333333"/>
<path d="M68.0352 35.5888C67.2583 35.5888 66.6326 36.214 66.6326 36.9903C66.6326 37.7666 67.2583 38.3918 68.0352 38.3918C68.8122 38.3918 69.4379 37.7666 69.4379 36.9903C69.4379 36.214 68.8122 35.5888 68.0352 35.5888Z" fill="#333333"/>
<path d="M73.4946 33.2256C73.4946 31.5424 74.5053 30.0997 76.4649 30.0997H77.7026V28.1349H76.4649C74.9316 28.1349 74.2303 28.6227 73.5152 29.4333L73.5015 29.454V28.1349H71.4456V38.1307H73.4946C73.4946 38.1238 73.4946 33.9057 73.4946 33.2256Z" fill="#333333"/>
<path d="M60.1898 28.1349H58.1133V38.1307H60.1898V28.1349Z" fill="#333333"/>
<path d="M59.1515 26.4793C59.9285 26.4793 60.5542 25.8541 60.5542 25.0778C60.5542 24.3015 59.9216 23.6763 59.1515 23.6763C58.3746 23.6763 57.7489 24.3015 57.7489 25.0778C57.7489 25.8541 58.3814 26.4793 59.1515 26.4793Z" fill="#333333"/>
<path d="M53.8232 29.1448C53.0256 28.3341 51.8017 27.8807 50.5847 27.8807C47.6831 27.8807 45.3248 30.2371 45.3248 33.1362C45.3248 36.0354 47.6831 38.3918 50.5847 38.3918C51.8017 38.3918 53.0875 37.8696 53.8232 37.0452V38.1376H55.8652V28.1349H53.8232V29.1448ZM50.6534 36.3033C48.8658 36.3033 47.5044 34.9293 47.5044 33.1362C47.5044 31.3432 48.8658 29.9829 50.6534 29.9829C52.4411 29.9829 53.8507 31.2607 53.8507 33.1362C53.8507 35.0117 52.4411 36.3033 50.6534 36.3033Z" fill="#333333"/>
<path d="M83.4505 38.3918C84.3788 38.3918 85.5614 37.8903 86.304 37.0384C86.3108 37.4162 86.304 37.7597 86.304 38.1307H88.3461V33.7683V28.1349H86.2971V33.624C86.2971 35.0461 85.2107 36.372 83.5812 36.372C82.1579 36.372 81.1472 35.3415 81.1472 33.8645V28.1418H79.0982V34.0362C79.1051 36.6743 80.5284 38.3918 83.4505 38.3918Z" fill="#333333"/>
<path d="M39.329 27.8807C37.9676 27.8807 36.6337 28.499 35.8223 29.4745C35.0798 28.4921 34.0003 27.8807 32.5495 27.8807C31.3669 27.8807 30.5212 28.4097 30.0674 28.8356V28.1349H28.0253V38.1307H30.0674V32.2844C30.0674 30.9791 31.1331 29.9211 32.4326 29.9211C33.7321 29.9211 34.7979 30.9859 34.7979 32.2844V38.1307H36.8399V32.2844C36.8399 30.9791 37.9057 29.9211 39.2052 29.9211C40.5047 29.9211 41.5704 30.9859 41.5704 32.2844V38.1307H43.6125V32.2844C43.6263 29.6051 41.8867 27.8807 39.329 27.8807Z" fill="#333333"/>
<path d="M66.2956 42.7542L66.2819 42.7679V41.9916H65.6837H65.0786H64.9755V47.8586H65.0786H66.2819C66.2819 47.8517 66.2819 45.5091 66.2819 45.1106C66.2819 44.1213 66.8732 43.2763 68.0214 43.2763H68.7434V41.9916H68.0214C67.1276 41.9916 66.715 42.2802 66.2956 42.7542Z" fill="#333333"/>
<path d="M80.3427 45.2068C80.3427 46.148 79.5863 46.7113 78.8506 46.7113C78.0737 46.7113 77.5236 46.148 77.5236 45.3442V41.9985H76.2104V45.4404C76.2104 47.0686 77.1455 48.0098 78.7681 48.0098C79.2976 48.0098 79.9232 47.7418 80.3358 47.3365C80.3358 47.4395 80.3358 47.5426 80.3358 47.6456V47.8655H81.6422V41.9985H80.3289L80.3427 45.2068Z" fill="#333333"/>
<path d="M72.1468 41.8474C70.4485 41.8474 69.0665 43.2282 69.0665 44.9251C69.0665 46.622 70.4485 48.0029 72.1468 48.0029C73.8451 48.0029 75.2271 46.622 75.2271 44.9251C75.2271 43.2282 73.852 41.8474 72.1468 41.8474ZM72.1468 46.6976C71.1704 46.6976 70.3729 45.9007 70.3729 44.9251C70.3729 43.9496 71.1704 43.1527 72.1468 43.1527C73.1231 43.1527 73.9207 43.9496 73.9207 44.9251C73.9207 45.9007 73.13 46.6976 72.1468 46.6976Z" fill="#333333"/>
<path d="M86.0495 41.8474C85.3757 41.8474 84.7225 42.081 84.2619 42.4794V41.9916H82.9555V49.8784H84.2619V47.3365C84.7019 47.7487 85.3826 48.0097 86.0495 48.0097C87.7479 48.0097 89.1299 46.6289 89.1299 44.932C89.1299 43.2282 87.7479 41.8474 86.0495 41.8474ZM86.0083 46.6701C84.9838 46.6701 84.2412 45.935 84.2412 44.9251C84.2412 43.9152 84.9838 43.187 86.0083 43.187C86.9984 43.187 87.7478 43.9358 87.7478 44.9251C87.7478 45.9213 86.9984 46.6701 86.0083 46.6701Z" fill="#333333"/>
<path d="M62.3695 42.4794C61.9089 42.081 61.2557 41.8474 60.5818 41.8474C58.8835 41.8474 57.5015 43.2282 57.5015 44.9251C57.5015 46.622 58.8835 48.0029 60.5818 48.0029C61.2488 48.0029 61.9295 47.7418 62.3695 47.3296V47.4464C62.3489 48.6486 61.7645 49.2601 60.6231 49.2601H60.6094C59.963 49.2601 59.3923 49.0128 58.8629 48.4975L58.8148 48.4494L57.8659 49.3563L57.9072 49.4043C58.3954 49.9745 59.3855 50.6272 60.575 50.6272C60.5956 50.6272 60.6162 50.6272 60.6369 50.6272C61.7507 50.6066 63.6209 50.1738 63.6759 47.4945V41.9848H62.3695V42.4794ZM60.6231 46.6701C59.633 46.6701 58.8835 45.9213 58.8835 44.9251C58.8835 43.9358 59.633 43.187 60.6231 43.187C61.6476 43.187 62.3902 43.9152 62.3902 44.9251C62.3833 45.935 61.6476 46.6701 60.6231 46.6701Z" fill="#333333"/>
<path d="M14.274 32.9576C14.274 34.7781 12.7957 36.2552 10.9737 36.2552C9.15159 36.2552 7.67331 34.7781 7.67331 32.9576C7.67331 31.1371 9.15159 29.66 10.9737 29.66C12.7957 29.66 14.274 31.1439 14.274 32.9576ZM10.9737 22C4.92302 22 0 26.9189 0 32.9645C0 39.01 4.92302 43.9221 10.9737 43.9221C13.1876 43.9221 15.326 43.2625 17.1549 42.0122L17.1893 41.9916L15.711 40.2741L15.6835 40.2878C14.274 41.1878 12.6513 41.6687 10.9737 41.6687C6.16752 41.6687 2.25524 37.7597 2.25524 32.9576C2.25524 28.1555 6.16752 24.2465 10.9737 24.2465C15.7798 24.2465 19.6921 28.1555 19.6921 32.9576C19.6921 33.5828 19.6233 34.2079 19.4858 34.8331C19.2108 35.9666 18.4201 36.3101 17.8219 36.262C17.2237 36.214 16.5224 35.788 16.5155 34.7438V32.9576C16.5155 29.9005 14.0265 27.4135 10.9668 27.4135C7.90708 27.4135 5.41807 29.9005 5.41807 32.9576C5.41807 36.0147 7.90708 38.5017 10.9668 38.5017C12.4519 38.5017 13.8477 37.9177 14.8997 36.8666C15.5116 37.8147 16.5086 38.4123 17.6431 38.5017C17.7394 38.5085 17.8425 38.5154 17.9388 38.5154C18.7363 38.5154 19.5271 38.2475 20.1665 37.7666C20.8266 37.2651 21.3147 36.5437 21.5829 35.6781C21.6241 35.5407 21.7067 35.2178 21.7067 35.2178V35.2041C21.8648 34.5102 21.9404 33.8163 21.9404 32.9576C21.9473 26.9189 17.0243 22 10.9737 22Z" fill="#FC2C38"/>
</svg>
