<svg width="62" height="16" viewBox="0 0 62 16" fill="none" xmlns="http://www.w3.org/2000/svg">
<g clip-path="url(#clip0)">
<path fill-rule="evenodd" clip-rule="evenodd" d="M0 9.38615C0 12.4302 1.7013 15.5 5.51105 15.5C9.31737 15.5 11.0221 12.4302 11.0221 9.38615C11.0221 7.30689 10.323 4.91247 9.15617 2.97847C8.02144 1.11086 6.65809 0 5.51105 0C4.36075 0 2.99676 1.11086 1.8719 2.97847C0.699573 4.91247 0 7.30689 0 9.38615Z" fill="#E30611"/>
<path fill-rule="evenodd" clip-rule="evenodd" d="M39.1277 4.56707H35.27V0.830566H47.1187V4.56707H43.261V14.6698H39.1277V4.56707Z" fill="#E30611"/>
<path fill-rule="evenodd" clip-rule="evenodd" d="M55.936 4.56724H61.9986V0.830566H55.9366C50.3663 0.830566 47.3926 3.61228 47.3926 7.75026C47.3926 11.8882 50.3663 14.6699 55.9366 14.6699H61.9986V10.9333H55.936C53.3587 10.9333 51.6636 10.0078 51.6636 7.75026C51.6636 5.49274 53.3587 4.56724 55.936 4.56724Z" fill="#E30611"/>
<path fill-rule="evenodd" clip-rule="evenodd" d="M24.6608 9.09108L26.8644 0.830566H34.1683V14.6699H30.0349V3.40593L27.0303 14.6699H22.2912L19.2886 3.41309L19.2884 14.6699H15.1553V0.830566H22.4572L24.6608 9.09108Z" fill="#E30611"/>
</g>
<defs>
<clipPath id="clip0">
<rect width="62" height="15.5" fill="white"/>
</clipPath>
</defs>
</svg>
