<svg width="57" height="64" viewBox="0 0 57 64" fill="none" xmlns="http://www.w3.org/2000/svg">
<path d="M21.0073 37.7694L28.0319 30.8249L35.0565 37.7694H21.0073Z" fill="#176DAC"/>
<path d="M0 44.6933L7.00398 37.7694L14.0492 44.6933H0Z" fill="#002C40"/>
<path d="M21.0073 37.7694L14.0491 44.6933L7.00389 37.7694H21.0073Z" fill="#014D66"/>
<path d="M14.0059 30.8456L21.0076 23.924L28.0528 30.8456H14.0059Z" fill="#319AD5"/>
<path d="M28.0112 30.8453L35.0335 23.9192L42.0581 30.8453H28.0112Z" fill="#319AD5"/>
<path d="M35.0336 23.9192L28.0319 30.8453L21.0073 23.9237L35.0336 23.9192Z" fill="#3AADE2"/>
<path d="M49.0395 23.9237L42.0264 30.8453L35.0338 23.9192L49.0395 23.9237Z" fill="#3AADE2"/>
<path d="M7.00389 37.7695L14.0056 30.8456L21.0942 37.7695H7.00389Z" fill="#176DAC"/>
<path d="M28.0322 30.8456L21.0076 37.7695L14.0059 30.8456H28.0322Z" fill="#2780BE"/>
<path d="M42.0261 30.8456L35.0564 37.7695L28.0318 30.8456H42.0261Z" fill="#2780BE"/>
<path d="M21.0073 23.9239L28.0113 17L35.0336 23.9193L21.0073 23.9239Z" fill="#31C4F3"/>
<path d="M35.0338 23.9193L42.0584 17L49.0395 23.9239L35.0338 23.9193Z" fill="#31C4F3"/>
<path d="M42.0581 17L35.0335 23.9193L28.0112 17H42.0581Z" fill="#FBB231"/>
<path d="M21.7668 40.6227C21.7668 40.5414 21.7991 40.4634 21.8566 40.4059C21.9141 40.3484 21.9921 40.3161 22.0734 40.3161H24.7208C25.5559 40.3161 26.4163 40.6754 26.4163 41.6432C26.4194 41.8117 26.381 41.9783 26.3043 42.1284C26.2277 42.2785 26.1153 42.4073 25.977 42.5036C26.1732 42.6055 26.3364 42.7612 26.4474 42.9524C26.5584 43.1437 26.6127 43.3626 26.6039 43.5836C26.6039 44.5103 25.7893 44.9839 24.8764 44.9839H22.0734C21.9921 44.9839 21.9141 44.9516 21.8566 44.8941C21.7991 44.8366 21.7668 44.7586 21.7668 44.6773V40.6227ZM22.9955 41.1971V42.1306H24.7368C24.8606 42.1306 24.9793 42.0814 25.0669 41.9939C25.1544 41.9064 25.2036 41.7876 25.2036 41.6638C25.2036 41.54 25.1544 41.4213 25.0669 41.3338C24.9793 41.2462 24.8606 41.1971 24.7368 41.1971H22.9955ZM22.9955 42.9841V44.1053H24.8558C24.9957 44.0926 25.1259 44.0281 25.2206 43.9243C25.3154 43.8206 25.368 43.6852 25.368 43.5447C25.368 43.4042 25.3154 43.2687 25.2206 43.165C25.1259 43.0613 24.9957 42.9967 24.8558 42.9841H22.9955Z" fill="#211E1F"/>
<path d="M28.7249 44.0069C28.9057 44.0069 29.0773 44.0664 29.2718 44.0664H29.3358C29.7614 44.0664 30.0635 43.785 30.2236 43.2198H29.9422C28.7981 43.2198 28.2947 42.7622 27.8829 41.7989L27.3703 40.6251C27.2971 40.4512 27.384 40.3184 27.5511 40.3184H28.2375C28.3309 40.3173 28.4223 40.3448 28.4996 40.3971C28.5769 40.4495 28.6364 40.5242 28.67 40.6113L29.0429 41.5266C29.2489 42.0208 29.5509 42.3068 30.1252 42.3068H30.5257L31.1137 40.6251C31.1419 40.5389 31.1963 40.4636 31.2693 40.4099C31.3423 40.3561 31.4303 40.3266 31.521 40.3253H32.1823C32.2183 40.3225 32.2544 40.3292 32.287 40.3446C32.3197 40.36 32.3478 40.3836 32.3686 40.4132C32.3893 40.4427 32.4021 40.4771 32.4055 40.5131C32.409 40.549 32.403 40.5852 32.3882 40.6182L31.3265 43.6614C31.0519 44.4485 30.5394 44.9954 29.4113 44.9954H28.6242C28.5429 44.9954 28.4649 44.9631 28.4074 44.9056C28.3499 44.8481 28.3176 44.7701 28.3176 44.6888V44.3227C28.317 44.2822 28.3245 44.2421 28.3397 44.2046C28.3549 44.1671 28.3774 44.1331 28.406 44.1045C28.4346 44.0759 28.4687 44.0533 28.5062 44.0382C28.5436 44.023 28.5838 44.0155 28.6242 44.0161L28.7249 44.0069Z" fill="#211E1F"/>
<path d="M37.4016 44.9883H36.7815C36.7002 44.9883 36.6222 44.956 36.5647 44.8985C36.5072 44.841 36.4749 44.7631 36.4749 44.6817V41.2495H35.6809C35.4843 41.2438 35.2917 41.3057 35.1352 41.4248C34.9786 41.5438 34.8676 41.713 34.8206 41.9039L34.0724 44.6932C34.0487 44.7787 33.9985 44.8544 33.929 44.9095C33.8595 44.9646 33.7743 44.9962 33.6857 44.9998H33.0267C32.9927 45.0013 32.9589 44.9946 32.928 44.9803C32.8971 44.9659 32.8701 44.9444 32.8493 44.9175C32.8284 44.8907 32.8143 44.8591 32.8082 44.8257C32.802 44.7922 32.804 44.7578 32.8139 44.7252L33.6422 41.595C33.9168 40.5608 34.8572 40.3274 35.8045 40.3274H37.4336C37.5101 40.3333 37.5814 40.3684 37.6325 40.4256C37.6837 40.4827 37.7108 40.5574 37.7082 40.634V44.6909C37.7079 44.7306 37.6997 44.7699 37.6841 44.8065C37.6685 44.8431 37.6457 44.8761 37.6172 44.9038C37.5887 44.9315 37.5549 44.9532 37.5179 44.9677C37.4809 44.9823 37.4414 44.9893 37.4016 44.9883Z" fill="#211E1F"/>
<path d="M39.6096 44.9884C39.5275 44.9872 39.4492 44.9536 39.3917 44.8948C39.3343 44.8361 39.3024 44.7571 39.303 44.6749V40.6249C39.3024 40.5428 39.3343 40.4637 39.3917 40.405C39.4492 40.3463 39.5275 40.3126 39.6096 40.3114H40.2228C40.305 40.3126 40.3833 40.3463 40.4407 40.405C40.4982 40.4637 40.5301 40.5428 40.5294 40.6249V42.1854H41.2342C41.614 42.1854 41.8886 41.9909 42.1495 41.5241L42.6574 40.6226C42.6992 40.5346 42.7636 40.4592 42.8439 40.4042C42.9243 40.3491 43.0179 40.3163 43.115 40.3091H43.8701C44.0372 40.3091 44.0692 40.4419 43.9708 40.6226L43.2638 41.904C43.1862 42.0794 43.0703 42.2352 42.9246 42.3599C42.7788 42.4847 42.607 42.5751 42.4217 42.6247C42.7421 42.6911 43.0761 43.0984 43.2638 43.3844L44.0783 44.6795C44.1859 44.8534 44.1378 44.9861 43.9639 44.9861H43.2157C43.1144 44.9764 43.0166 44.9437 42.9298 44.8906C42.843 44.8375 42.7694 44.7653 42.7146 44.6795L42.1403 43.7642C41.8932 43.3707 41.6461 43.0961 41.225 43.0961H40.5249V44.6772C40.5237 44.7575 40.4908 44.8341 40.4333 44.8902C40.3759 44.9464 40.2986 44.9776 40.2183 44.9769L39.6096 44.9884Z" fill="#211E1F"/>
<path d="M45.7052 41.5837C45.9798 40.5495 46.9202 40.3161 47.8675 40.3161H49.6225C49.6607 40.3173 49.6983 40.326 49.7331 40.3417C49.7679 40.3574 49.7992 40.3798 49.8254 40.4077C49.8515 40.4355 49.8719 40.4682 49.8854 40.5039C49.8989 40.5397 49.9052 40.5777 49.904 40.6159V44.6865C49.9028 44.7668 49.8699 44.8434 49.8124 44.8995C49.755 44.9556 49.6777 44.9868 49.5974 44.9862H48.9841C48.9437 44.9868 48.9036 44.9793 48.8661 44.9641C48.8286 44.9489 48.7945 44.9264 48.766 44.8978C48.7374 44.8692 48.7148 44.8351 48.6996 44.7977C48.6844 44.7602 48.6769 44.72 48.6775 44.6796V43.8582H46.3596L46.1308 44.6796C46.1072 44.7651 46.0569 44.8408 45.9875 44.8959C45.918 44.951 45.8328 44.9826 45.7441 44.9862H45.1035C45.0664 44.988 45.0294 44.9808 44.9958 44.9652C44.9621 44.9496 44.9327 44.926 44.9102 44.8965C44.8877 44.867 44.8727 44.8325 44.8665 44.7959C44.8603 44.7593 44.8631 44.7217 44.8746 44.6865L45.7052 41.5837ZM46.5999 42.9383H48.6752V41.2382H47.7485C47.5519 41.2325 47.3593 41.2944 47.2028 41.4135C47.0462 41.5325 46.9352 41.7017 46.8882 41.8926L46.5999 42.9383Z" fill="#211E1F"/>
<path d="M54.963 43.0114H52.7206V44.6863C52.7194 44.7666 52.6865 44.8432 52.6291 44.8993C52.5717 44.9555 52.4943 44.9867 52.414 44.986H51.8054C51.7232 44.9867 51.6442 44.9548 51.5855 44.8973C51.5267 44.8399 51.4931 44.7616 51.4919 44.6794V40.6226C51.4919 40.5817 51.5 40.5413 51.5159 40.5036C51.5317 40.466 51.5549 40.4319 51.5841 40.4033C51.6133 40.3747 51.6479 40.3523 51.6859 40.3373C51.7239 40.3223 51.7645 40.315 51.8054 40.316H52.414C52.4953 40.316 52.5733 40.3483 52.6308 40.4058C52.6883 40.4633 52.7206 40.5413 52.7206 40.6226V42.0916H54.963V40.6226C54.963 40.5413 54.9953 40.4633 55.0528 40.4058C55.1103 40.3483 55.1883 40.316 55.2696 40.316H55.8783C55.919 40.3154 55.9595 40.3228 55.9974 40.3379C56.0352 40.353 56.0697 40.3755 56.0988 40.404C56.128 40.4325 56.1512 40.4665 56.1671 40.504C56.1831 40.5415 56.1914 40.5818 56.1917 40.6226V44.6794C56.1905 44.7616 56.1569 44.8399 56.0982 44.8973C56.0395 44.9548 55.9604 44.9867 55.8783 44.986H55.2719C55.2319 44.9867 55.1922 44.9794 55.1551 44.9646C55.1179 44.9499 55.0841 44.928 55.0554 44.9002C55.0267 44.8723 55.0038 44.8391 54.9879 44.8024C54.9721 44.7657 54.9636 44.7263 54.963 44.6863V43.0114Z" fill="#211E1F"/>
<path d="M44.8728 36.1447H43.0194V37.5176C43.0182 37.584 42.9908 37.6472 42.9433 37.6934C42.8957 37.7397 42.8318 37.7653 42.7654 37.7647H42.2643C42.1965 37.7647 42.1315 37.7381 42.0831 37.6906C42.0347 37.6431 42.007 37.5785 42.0058 37.5108V34.1724C42.0058 34.1386 42.0125 34.1052 42.0255 34.0741C42.0386 34.043 42.0577 34.0148 42.0818 33.9911C42.1058 33.9675 42.1344 33.9489 42.1657 33.9364C42.1971 33.9239 42.2306 33.9178 42.2643 33.9184H42.7654C42.7989 33.9181 42.832 33.9244 42.863 33.9371C42.8939 33.9497 42.9221 33.9684 42.9457 33.9921C42.9693 34.0157 42.988 34.0439 43.0007 34.0748C43.0134 34.1058 43.0197 34.1389 43.0194 34.1724V35.3851H44.8705V34.1724C44.8702 34.1389 44.8766 34.1058 44.8892 34.0748C44.9019 34.0439 44.9206 34.0157 44.9442 33.9921C44.9679 33.9684 44.996 33.9497 45.0269 33.9371C45.0579 33.9244 45.0911 33.9181 45.1245 33.9184H45.6256C45.6593 33.9178 45.6929 33.9239 45.7242 33.9364C45.7556 33.9489 45.7841 33.9675 45.8082 33.9911C45.8322 34.0148 45.8514 34.043 45.8644 34.0741C45.8774 34.1052 45.8842 34.1386 45.8842 34.1724V37.5222C45.8839 37.5558 45.8769 37.5891 45.8638 37.6201C45.8506 37.6511 45.8315 37.6792 45.8075 37.7027C45.7835 37.7263 45.7551 37.7449 45.7238 37.7575C45.6926 37.7701 45.6593 37.7765 45.6256 37.7762H45.1245C45.0581 37.7768 44.9942 37.7512 44.9467 37.7049C44.8991 37.6586 44.8717 37.5954 44.8705 37.5291L44.8728 36.1447Z" fill="#919397"/>
<path d="M50.5475 33.9184C50.581 33.9178 50.6144 33.9239 50.6454 33.9364C50.6765 33.949 50.7048 33.9677 50.7285 33.9914C50.7522 34.0151 50.7709 34.0433 50.7834 34.0744C50.796 34.1055 50.8021 34.1388 50.8015 34.1724V34.4263C50.8021 34.4599 50.796 34.4932 50.7834 34.5243C50.7709 34.5554 50.7522 34.5836 50.7285 34.6073C50.7048 34.631 50.6765 34.6497 50.6454 34.6623C50.6144 34.6748 50.581 34.6809 50.5475 34.6803H49.3463V37.5268C49.345 37.5931 49.3177 37.6563 49.2701 37.7026C49.2226 37.7489 49.1586 37.7745 49.0923 37.7739H48.5843C48.5512 37.7745 48.5184 37.7686 48.4876 37.7565C48.4569 37.7444 48.4288 37.7264 48.405 37.7034C48.3812 37.6805 48.3621 37.6531 48.3489 37.6227C48.3357 37.5924 48.3286 37.5598 48.328 37.5268V34.678H47.1268C47.0932 34.6787 47.0599 34.6725 47.0288 34.66C46.9977 34.6474 46.9695 34.6287 46.9458 34.605C46.9221 34.5813 46.9034 34.5531 46.8908 34.522C46.8783 34.4909 46.8722 34.4576 46.8728 34.4241V34.1724C46.8722 34.1388 46.8783 34.1055 46.8908 34.0744C46.9034 34.0433 46.9221 34.0151 46.9458 33.9914C46.9695 33.9677 46.9977 33.949 47.0288 33.9364C47.0599 33.9239 47.0932 33.9178 47.1268 33.9184H50.5475Z" fill="#919397"/>
<path d="M52.0461 37.7762C51.9789 37.7756 51.9147 37.7487 51.8672 37.7012C51.8197 37.6537 51.7927 37.5894 51.7921 37.5223V34.1656C51.7933 34.0992 51.8207 34.036 51.8683 33.9897C51.9158 33.9435 51.9797 33.9178 52.0461 33.9184H52.5541C52.5875 33.9181 52.6207 33.9245 52.6516 33.9372C52.6826 33.9498 52.7107 33.9685 52.7343 33.9922C52.758 34.0158 52.7767 34.0439 52.7893 34.0749C52.802 34.1058 52.8084 34.139 52.8081 34.1724V37.0143H54.6157V34.1656C54.6169 34.0992 54.6442 34.036 54.6918 33.9897C54.7394 33.9435 54.8033 33.9178 54.8697 33.9184H55.3776C55.4111 33.9181 55.4442 33.9245 55.4752 33.9372C55.5061 33.9498 55.5343 33.9685 55.5579 33.9922C55.5816 34.0158 55.6002 34.0439 55.6129 34.0749C55.6256 34.1058 55.6319 34.139 55.6316 34.1724V37.0143H55.9245C55.9578 37.0149 55.9908 37.0221 56.0213 37.0354C56.0519 37.0487 56.0796 37.0679 56.1028 37.0919C56.1259 37.1159 56.1441 37.1443 56.1563 37.1753C56.1685 37.2064 56.1745 37.2395 56.1739 37.2729V37.5268C56.1733 37.594 56.1464 37.6583 56.0989 37.7058C56.0514 37.7533 55.9871 37.7802 55.9199 37.7808L52.0461 37.7762Z" fill="#919397"/>
<path d="M42.0264 30.8456L49.0395 23.924L56.0641 30.8456H42.0264Z" fill="#319AD5"/>
</svg>
