<svg width="143" height="64" viewBox="0 0 143 64" fill="none" xmlns="http://www.w3.org/2000/svg">
<path d="M82.8452 27.3083H91.0748V29.1613H90.487C90.487 29.1613 90.3694 28.2151 89.4289 28.2151H87.9789V36.7312H85.9411V28.1756H84.4519C83.6681 28.1756 83.4722 28.8065 83.3938 29.1219H82.806V27.3083H82.8452Z" fill="#46433E"/>
<path d="M100.049 27.3083H101.538V36.7312H99.5396V30.147L94.641 36.7312H93.1518V29.043C93.1518 27.9391 92.2113 27.7814 92.2113 27.7814V27.3083H95.1504V33.9319L100.049 27.3083Z" fill="#46433E"/>
<path d="M56.9805 36.7312H54.3941L52.5522 33.2222C52.5522 33.2222 52.0036 32.1577 51.4157 32.1577H50.6711V36.6918H48.6333V29.043C48.6333 27.9391 47.6536 27.8602 47.6536 27.8602V27.3083H50.6711V31.2509H51.5725C51.5725 31.2509 52.1603 31.2115 52.6698 30.3835C54.2765 27.7814 54.0414 27.3083 54.7468 27.3083H56.7454V27.9391C55.3738 27.9391 54.9427 30.7778 53.6103 31.6846C54.2765 31.9212 54.5116 32.552 55.9616 35.1936C55.9616 35.1936 56.3143 36.1004 57.0197 36.1004V36.7312H56.9805Z" fill="#46433E"/>
<path d="M105.81 31.0144H110.669V30.5018C110.669 29.1613 109.572 28.0574 108.239 28.0574C106.907 28.0574 105.81 29.1613 105.81 30.5018V31.0144ZM112.393 34.681C111.453 35.9821 110.042 36.8889 108.239 36.8889C105.771 36.8889 103.38 34.957 103.38 32.3943V31.8423C103.38 29.0825 105.575 27.1506 108.239 27.1506C110.904 27.1506 112.981 29.3585 112.981 32H105.81V33.5377C105.81 34.8782 106.907 35.9821 108.475 35.9821C109.846 35.9821 110.787 35.3907 111.571 34.6022L112.393 34.681Z" fill="#46433E"/>
<path d="M63.9953 27.1506C62.8588 27.1506 61.7615 27.6631 61.2521 28.3334V27.3083H58.2737V27.8603C58.2737 27.8603 59.2143 28.018 59.2143 29.043V41.0287H61.2521V35.7061C62.1926 36.8101 63.4467 36.8495 63.8386 36.8495C66.4642 36.8101 68.2669 34.7599 68.2669 32.1972V31.6452C68.2669 28.8853 66.5818 27.1506 63.9953 27.1506ZM65.8764 33.4982C65.8764 34.681 65.0142 35.8244 63.7602 35.9033H63.5642C62.4278 35.9033 61.448 35.0359 61.2913 34.1685V30.0681C61.3697 29.1219 62.3494 28.0574 63.5642 28.0574H63.9561C63.9561 28.0574 65.8372 28.1757 65.8764 30.4624V33.4982Z" fill="#46433E"/>
<path d="M33.0754 27.1506C29.5484 27.1506 28.0984 29.9104 28.0984 31.6846V32.4732C28.0984 34.5628 30.1362 36.8495 33.0754 36.8495C35.8186 36.8495 38.0915 34.7993 38.0915 32.3943V31.7635C38.0915 29.3979 36.2105 27.1506 33.0754 27.1506ZM35.6618 33.4194C35.6618 34.7599 34.6037 35.9821 33.0754 35.9821C31.547 35.9821 30.5281 34.7993 30.5281 33.4194V30.423C30.5281 29.0825 31.6646 28.018 33.0754 28.018C34.6037 28.018 35.6618 29.1219 35.6618 30.4624V33.4194Z" fill="#46433E"/>
<path d="M81.4344 27.3083H78.456V27.8602C78.456 27.8602 79.4357 28.0179 79.4357 29.1219V36.7706H81.4344V27.3083Z" fill="#46433E"/>
<path d="M72.6953 30.8961V27.3083H69.7561V27.8602C69.7561 27.8602 70.6574 27.9391 70.6574 29.043V36.7312H75.2425C77.0452 36.7312 78.2993 35.6273 78.2993 34.0896V33.6165C78.2993 31.9212 77.0452 30.8566 75.125 30.8566H72.6953V30.8961ZM72.6953 35.785V31.8423H74.4196C75.3601 31.8423 76.1047 32.5914 76.1047 33.6954V34.0896C76.1047 34.9964 75.2817 35.785 74.3804 35.785H72.6953Z" fill="#46433E"/>
<path d="M38.4442 27.3083H46.6739V29.1613H46.0861C46.0861 29.1613 45.9685 28.2151 45.028 28.2151H43.578V36.7312H41.5402V28.1756H40.051C39.2672 28.1756 39.0713 28.8065 38.9929 29.1219H38.4051V27.3083H38.4442Z" fill="#46433E"/>
<path d="M10.9337 21C4.8986 21 0 25.9283 0 32C0 38.0717 4.8986 43 10.9337 43C16.9688 43 21.8674 38.0717 21.8674 32C21.8674 25.9283 16.9688 21 10.9337 21ZM8.62154 37.4014C8.69992 37.4409 9.01343 37.638 9.09181 38.0323C9.131 38.3082 9.09181 38.5448 8.97424 38.7814C8.81748 39.0573 8.54316 39.2151 8.19046 39.2151C7.99452 39.2151 7.83776 39.1756 7.64182 39.0968L7.13237 38.8602C4.8986 37.6774 3.52699 35.2724 3.52699 32.5914V31.4875C3.52699 28.8065 4.8986 26.4014 7.17155 25.2186C7.21074 25.2186 7.68101 24.9821 7.68101 24.9821C7.83776 24.9032 8.03371 24.8638 8.22965 24.8638C8.58235 24.8638 8.85667 25.0215 9.01343 25.2975C9.13099 25.534 9.17018 25.7706 9.13099 26.0466C9.01343 26.4409 8.62154 26.5986 8.62154 26.5986C7.32831 27.19 6.46616 28.5305 6.46616 30.0287V33.9319C6.46616 35.4695 7.32831 36.81 8.62154 37.4014ZM18.3404 32.552C18.3404 35.233 16.9688 37.638 14.735 38.8208L14.2255 39.0573C14.0688 39.1362 13.8728 39.1756 13.6769 39.1756C13.3242 39.1756 13.0499 39.0179 12.8931 38.7419C12.7756 38.5054 12.7364 38.2688 12.7756 37.9928C12.8539 37.5986 13.1674 37.4014 13.2458 37.362C14.5782 36.7706 15.4012 35.3907 15.4012 33.9319V30.0681C15.4012 28.5699 14.5391 27.2294 13.2458 26.638C13.2458 26.638 12.8539 26.4409 12.7756 26.0072C12.7364 25.7312 12.7756 25.4946 12.8931 25.2581C13.0499 24.9821 13.3242 24.8244 13.6769 24.8244C13.8728 24.8244 14.0296 24.8638 14.2255 24.9427C14.2255 24.9427 14.6958 25.1792 14.735 25.1792C16.9688 26.362 18.3796 28.767 18.3796 31.448V32.552H18.3404Z" fill="#65BDE4"/>
<path d="M127.089 32.1577H126.541V33.8136H127.05C127.677 33.8136 128.069 33.5376 128.069 32.9857C128.069 32.4337 127.716 32.1577 127.089 32.1577ZM127.011 34.3656H125.874V29.7133H128.265L128.343 30.3047H126.501V31.6057H127.089C128.069 31.6057 128.657 32.0788 128.657 32.9462C128.696 33.8925 128.03 34.3656 127.011 34.3656Z" fill="#46433E"/>
<path d="M130.734 32.3943H132.223L131.478 30.4229L130.734 32.3943ZM131.165 29.6738H131.792L133.595 34.2867L132.968 34.405L132.419 32.9462H130.538L130.029 34.3262H129.362L131.165 29.6738Z" fill="#46433E"/>
<path d="M137.553 34.3656V32.1971H135.201V34.3656H134.574V29.7133H135.201V31.6452H137.553V29.7133H138.18V34.3656H137.553Z" fill="#46433E"/>
<path d="M142.099 29.7133L140.178 31.8029V29.7133H139.551V34.3656H140.178V32L142.334 34.405L143 34.2473L140.845 31.8817L142.882 29.7133H142.099Z" fill="#46433E"/>
<path d="M119.643 21H119.252V43H119.643V21Z" fill="#46433E"/>
</svg>
