<svg width="92" height="26" viewBox="0 0 92 26" fill="none" xmlns="http://www.w3.org/2000/svg">
<path d="M29.4709 24.9103L29.8189 24.4749C29.9955 24.6789 30.2144 24.8426 30.4606 24.9547C30.7068 25.0668 30.9746 25.1248 31.2455 25.1245C32.0562 25.1245 32.3171 24.6891 32.3171 24.3367C32.3171 23.1722 29.6206 23.8218 29.6206 22.2081C29.6206 21.4618 30.2886 20.9469 31.1898 20.9469C31.4881 20.9354 31.7856 20.986 32.063 21.0955C32.3405 21.205 32.5918 21.371 32.8008 21.5827L32.4528 21.9974C32.285 21.8184 32.0804 21.6773 31.8529 21.5837C31.6253 21.4901 31.3802 21.4462 31.1341 21.4549C30.5948 21.4549 30.1982 21.7451 30.1982 22.1736C30.1982 23.1895 32.8947 22.609 32.8947 24.2952C32.8878 24.9414 32.4354 25.6325 31.2107 25.6325C30.8855 25.6432 30.5618 25.5843 30.2615 25.4597C29.9613 25.3351 29.6917 25.1477 29.4709 24.9103Z" fill="#5A5A5A"/>
<path d="M37.5571 23.2896C37.5571 21.9558 38.4722 20.9503 39.8153 20.9503C40.1219 20.945 40.4264 21.0027 40.7096 21.1196C40.9928 21.2365 41.2487 21.4101 41.4613 21.6296C41.6738 21.8492 41.8385 22.1099 41.9451 22.3955C42.0516 22.6811 42.0977 22.9855 42.0804 23.2896C42.0982 23.594 42.0525 23.8987 41.9462 24.1847C41.8399 24.4708 41.6752 24.7319 41.4626 24.9518C41.25 25.1718 40.9939 25.3457 40.7105 25.4628C40.427 25.5799 40.1222 25.6376 39.8153 25.6324C38.4687 25.6324 37.5571 24.6268 37.5571 23.2896ZM41.4959 23.2896C41.4959 22.2322 40.8348 21.4513 39.8153 21.4513C38.7958 21.4513 38.1417 22.2322 38.1417 23.2896C38.1417 24.347 38.7889 25.1279 39.8153 25.1279C40.8417 25.1279 41.4924 24.34 41.4924 23.2896H41.4959Z" fill="#5A5A5A"/>
<path d="M46.9656 25.5493V21.0261H49.9474V21.5272H47.5327V22.9853H49.9022V23.4864H47.5327V25.5596L46.9656 25.5493Z" fill="#5A5A5A"/>
<path d="M55.859 25.5493V21.5272H54.4185V21.0261H57.8701V21.5272H56.4226V25.5493H55.859Z" fill="#5A5A5A"/>
<path d="M66.113 25.5493L65.1074 21.9003L64.1053 25.5458H63.4895L62.1777 21.0261H62.804L63.8131 24.796L64.8569 21.0261H65.3266L66.3705 24.796L67.3969 21.0261H68.0302L66.7254 25.5458L66.113 25.5493Z" fill="#5A5A5A"/>
<path d="M75.5909 25.5495L75.1872 24.5405H72.9221L72.5185 25.5495H71.8713L73.7085 21.0298H74.4044L76.2346 25.5495H75.5909ZM74.0564 21.6034L73.0926 24.0429H75.0237L74.0564 21.6034Z" fill="#5A5A5A"/>
<path d="M83.4753 25.5494L82.3201 23.7526H81.405V25.5494H80.8379V21.0263H82.6681C82.8547 21.0126 83.0421 21.0381 83.2181 21.1011C83.3941 21.1641 83.5548 21.2632 83.6897 21.3919C83.8246 21.5207 83.9307 21.6762 84.0011 21.8484C84.0714 22.0205 84.1045 22.2055 84.0981 22.3912C84.1152 22.7217 84.0001 23.0455 83.7779 23.2921C83.5557 23.5387 83.2443 23.6881 82.9116 23.7077L84.1399 25.5529L83.4753 25.5494ZM83.5171 22.3912C83.5199 22.2733 83.4977 22.1561 83.4521 22.0472C83.4064 21.9383 83.3382 21.8402 83.252 21.7591C83.1658 21.678 83.0633 21.6158 82.9514 21.5765C82.8394 21.5371 82.7204 21.5216 82.602 21.5308H81.4085V23.2585H82.602C82.7207 23.2667 82.8399 23.2502 82.9519 23.2101C83.0639 23.17 83.1662 23.1071 83.2523 23.0254C83.3384 22.9438 83.4064 22.8453 83.452 22.7361C83.4976 22.6268 83.5198 22.5094 83.5171 22.3912Z" fill="#5A5A5A"/>
<path d="M89.0042 25.5493V21.0261H91.986V21.5272H89.5713V22.9853H91.9408V23.4864H89.5713V25.0448H91.986V25.5458L89.0042 25.5493Z" fill="#5A5A5A"/>
<path d="M29.7981 18.3414V9.01172H33.5768C35.4661 9.01172 36.5239 10.3006 36.5239 11.8279C36.5239 13.3552 35.4522 14.6441 33.5768 14.6441H30.9672V18.3414H29.7981ZM35.313 11.8106C35.3211 11.5676 35.2775 11.3256 35.185 11.1005C35.0924 10.8754 34.9531 10.6722 34.7761 10.5043C34.5991 10.3363 34.3883 10.2073 34.1577 10.1258C33.927 10.0442 33.6817 10.012 33.4376 10.0311H30.9672V13.5902H33.4376C33.6817 13.6092 33.927 13.577 34.1577 13.4954C34.3883 13.4139 34.5991 13.2849 34.7761 13.1169C34.9531 12.949 35.0924 12.7458 35.185 12.5207C35.2775 12.2956 35.3211 12.0536 35.313 11.8106Z" fill="#5A5A5A"/>
<path d="M43.6636 18.3414L42.832 16.2681H38.1487L37.3171 18.3414H35.9775L39.7701 9.01172H41.2245L45.0032 18.3414H43.6636ZM40.4869 10.1866L38.5001 15.2315H42.4911L40.4869 10.1866Z" fill="#5A5A5A"/>
<path d="M51.6314 18.3414L49.248 14.6302H47.3586V18.3414H46.1721V9.01172H49.9508C51.6731 9.01172 52.9118 10.1036 52.9118 11.8279C52.946 12.5103 52.7075 13.1785 52.2481 13.6872C51.7887 14.1958 51.1456 14.5037 50.4588 14.5438L52.9988 18.3448L51.6314 18.3414ZM51.7149 11.8106C51.7149 10.7463 50.939 10.0311 49.8255 10.0311H47.3586V13.604H49.8255C50.0708 13.6203 50.3169 13.5858 50.548 13.5026C50.7791 13.4194 50.9903 13.2893 51.168 13.1206C51.3457 12.9519 51.4861 12.7483 51.5803 12.5228C51.6744 12.2972 51.7203 12.0547 51.7149 11.8106Z" fill="#5A5A5A"/>
<path d="M61.4503 18.3414L60.6187 16.2681H55.9353L55.1037 18.3414H53.7642L57.5568 9.01172H59.0112L62.7898 18.3414H61.4503ZM58.2735 10.1866L56.2868 15.2315H60.2777L58.2735 10.1866Z" fill="#5A5A5A"/>
<path d="M63.0719 13.6767C63.0478 13.0379 63.1561 12.401 63.3901 11.8055C63.6242 11.21 63.979 10.6687 64.4325 10.2151C64.886 9.76143 65.4286 9.40521 66.0265 9.16851C66.6244 8.93181 67.265 8.81967 67.9083 8.83906C68.6112 8.82177 69.3082 8.96918 69.9429 9.26935C70.5777 9.56953 71.1323 10.014 71.5618 10.5668L70.6293 11.1542C70.3021 10.7505 69.8876 10.425 69.4167 10.2019C68.9457 9.97882 68.4302 9.86378 67.9083 9.86532C65.8485 9.86532 64.2828 11.4203 64.2828 13.6663C64.2828 15.9123 65.8485 17.4672 67.9083 17.4672C68.8534 17.4639 69.7617 17.1031 70.4483 16.4583V14.5751H67.2055V13.5384H71.607V16.9006C71.144 17.4181 70.5745 17.8309 69.937 18.111C69.2995 18.3912 68.6089 18.5322 67.9118 18.5246C67.268 18.5415 66.6276 18.4273 66.0299 18.1892C65.4323 17.951 64.89 17.5938 64.4366 17.1396C63.9832 16.6854 63.6282 16.1439 63.3935 15.5483C63.1588 14.9528 63.0494 14.3158 63.0719 13.6767Z" fill="#5A5A5A"/>
<path d="M73.0859 13.6767C73.0859 10.9124 74.9753 8.83911 77.7554 8.83911C80.5354 8.83911 82.4387 10.9124 82.4387 13.6767C82.4387 16.441 80.5354 18.5143 77.7554 18.5143C74.9753 18.5143 73.0859 16.4341 73.0859 13.6767ZM81.2244 13.6767C81.2244 11.4929 79.8569 9.87574 77.7449 9.87574C75.6329 9.87574 74.2898 11.486 74.2898 13.6767C74.2898 15.8674 75.6294 17.4777 77.7449 17.4777C79.8604 17.4777 81.2244 15.8467 81.2244 13.6767Z" fill="#5A5A5A"/>
<path d="M90.8727 18.3413L85.3856 10.8879V18.3413H84.2166V9.01162H85.417L90.831 16.3026V8.9978H92.0001V18.3274L90.8727 18.3413Z" fill="#5A5A5A"/>
<path d="M7.73829 8.95996C6.72179 8.95996 5.71525 9.15885 4.77617 9.54527C3.83709 9.93168 2.98387 10.4981 2.26526 11.212C1.54665 11.926 0.976724 12.7736 0.588044 13.7063C0.199363 14.6391 -0.000456276 15.6388 7.82321e-07 16.6483V25.6116C2.05232 25.6116 4.02058 24.802 5.47179 23.3608C6.923 21.9196 7.73829 19.9649 7.73829 17.9268V16.6483H18.0548C19.0716 16.6487 20.0785 16.4502 21.018 16.064C21.9575 15.6777 22.8111 15.1114 23.5301 14.3974C24.2491 13.6834 24.8193 12.8357 25.2082 11.9027C25.5971 10.9697 25.7971 9.96973 25.7966 8.95996H7.73829Z" fill="url(#paint0_linear)"/>
<path d="M18.0548 7.76919e-07H7.73828C5.68596 7.76919e-07 3.7177 0.809653 2.26649 2.25084C0.815281 3.69203 0 5.64671 0 7.68486H25.7966C25.7966 6.67538 25.5963 5.67579 25.2072 4.74319C24.8181 3.8106 24.2478 2.96327 23.5289 2.24962C22.8099 1.53597 21.9565 0.96998 21.0172 0.583983C20.078 0.197987 19.0713 -0.000453126 18.0548 7.76919e-07Z" fill="url(#paint1_linear)"/>
<defs>
<linearGradient id="paint0_linear" x1="-4.33539" y1="0.172828" x2="19.693" y2="24.3683" gradientUnits="userSpaceOnUse">
<stop stop-color="#FBB040"/>
<stop offset="1" stop-color="#F05125"/>
</linearGradient>
<linearGradient id="paint1_linear" x1="148.33" y1="-108.894" x2="439.852" y2="869.689" gradientUnits="userSpaceOnUse">
<stop stop-color="#FBB040"/>
<stop offset="1" stop-color="#F05125"/>
</linearGradient>
</defs>
</svg>
