<svg width="83" height="64" viewBox="0 0 83 64" fill="none" xmlns="http://www.w3.org/2000/svg">
<path fill-rule="evenodd" clip-rule="evenodd" d="M21.7989 21.3759H0.174805V43H21.7989V21.3759ZM21.1734 22.0009H0.800201V42.3745H21.1734V22.0009Z" fill="black"/>
<path fill-rule="evenodd" clip-rule="evenodd" d="M0.805995 22.0009H21.1792V42.3745H0.805995V22.0009Z" fill="#FFF200"/>
<path fill-rule="evenodd" clip-rule="evenodd" d="M1.88127 38.2582L4.53893 40.9673L10.7657 34.6497L17.2008 41.0975L19.8974 38.4272L13.5268 32.0576L14.7515 30.8722V28.3452L15.5202 27.694V29.6738L16.5103 30.4813L19.4671 27.5245L20.4179 28.2539C20.9783 26.1828 17.7345 21.4803 15.0511 24.0855L11.9244 27.1856L12.5629 27.9543L10.9736 29.5043L9.43666 27.9932L10.2442 27.2633L6.81833 23.9549C4.23932 21.8314 1.59477 25.0626 1.50348 28.2146L2.44117 27.4332L5.31979 30.5338L6.34878 29.6743V27.7722L6.98686 28.2539V30.7421L8.23727 31.9925L1.88127 38.2582Z" fill="black"/>
<path fill-rule="evenodd" clip-rule="evenodd" d="M27.322 23.968V25.8439H28.1295C29.2367 25.6356 28.9371 24.0462 28.1295 23.968H27.322ZM25.0295 22.1053V30.5988H27.322V27.8373L29.276 30.5988H31.9856L29.5761 27.1992C32.3639 25.8444 31.3218 22.1446 28.3908 22.1058H25.0295V22.1053ZM35.633 26.3518C36.3885 26.3518 37.0004 26.9248 37.0004 27.6285C37.0004 28.3316 36.3881 28.9051 35.633 28.9051C34.8905 28.9051 34.2781 28.3316 34.2781 27.6285C34.2781 26.9248 34.8905 26.3518 35.633 26.3518ZM35.1508 24.476C35.7762 24.476 36.3623 24.6843 36.8441 25.0228V24.6974H39.0846L39.0977 30.5984H36.8309L36.8441 30.2337C36.3623 30.5722 35.7762 30.7678 35.1508 30.7678C33.4832 30.7678 32.1158 29.3611 32.1158 27.6285C32.1158 25.8959 33.4837 24.476 35.1508 24.476ZM40.2835 24.6974H42.6673V30.5984H40.2835V24.6974ZM41.4815 21.3235C42.1725 21.3235 42.7324 21.8965 42.7324 22.587C42.7324 23.2775 42.1725 23.8505 41.4815 23.8505C40.7783 23.8505 40.218 23.2771 40.218 22.587C40.2184 21.897 40.7783 21.3235 41.4815 21.3235ZM59.5758 24.6974H61.9596V30.5984H59.5758V24.6974ZM60.7611 21.3235C61.4647 21.3235 62.0246 21.8965 62.0246 22.587C62.0246 23.2775 61.4647 23.8505 60.7611 23.8505C60.0706 23.8505 59.5107 23.2771 59.5107 22.587C59.5107 21.897 60.0706 21.3235 60.7611 21.3235ZM43.1102 24.6974V26.5733H43.9308V30.5984H46.2369V26.5733H48.3993V30.5984H50.7831V26.5475H52.268V24.7236H50.7175V23.4081C50.6787 22.9264 51.812 22.7307 52.2029 23.1216V21.1933C50.0144 20.5028 48.2429 21.7406 48.2556 23.6553V24.6974H46.2233V23.4081C46.1971 22.9264 47.1877 22.7307 47.7603 23.1216V21.1933C45.8582 20.6334 43.8264 21.558 43.8395 23.6422V24.6843L43.1102 24.6974ZM55.6677 30.7678C57.713 30.7547 58.4681 29.9083 58.9115 28.6706H56.8404C55.9022 29.869 54.5343 28.9964 54.5999 28.0194H58.977C58.977 25.6225 57.6999 24.4891 55.6682 24.4891C53.6364 24.4891 52.3598 25.9221 52.3598 27.6678C52.3598 29.4135 53.8443 30.781 55.6677 30.7678ZM54.899 26.6257C54.9252 25.909 56.4883 25.909 56.5923 26.6257H54.899ZM71.8987 30.7678C73.9567 30.7547 74.7128 29.9083 75.1552 28.6706H73.071C72.1333 29.869 70.7654 28.9964 70.8309 28.0194H75.2081C75.2081 25.6225 73.9445 24.4891 71.8992 24.4891C69.867 24.4891 68.5908 25.9221 68.5908 27.6678C68.5908 29.4135 70.0748 30.781 71.8987 30.7678ZM71.13 26.6257C71.1563 25.909 72.7194 25.909 72.8233 26.6257H71.13ZM67.9649 24.8149L67.2613 26.2479C66.3756 25.974 65.5156 26.0265 65.5418 26.2737C65.568 26.43 65.4248 26.7034 66.8053 26.8991C68.8633 27.2245 68.6943 31.0543 65.2422 30.7678C64.2914 30.7028 63.5227 30.4551 62.8846 30.0773L63.6533 28.5399C64.7347 29.0741 65.7763 29.3868 65.8545 28.8527C65.9458 28.1884 64.7211 28.4229 63.9787 27.8625C62.6501 27.0419 63.4052 24.5017 65.5811 24.4755C66.3494 24.424 67.1443 24.5542 67.9649 24.8149ZM76.1195 24.6974V30.5984H78.3474V26.9899C78.4125 26.0911 80.184 25.9347 80.1971 26.9899V30.5984H82.4503V26.8991C82.3983 24.828 80.2228 23.8248 78.2557 25.1403V24.6974H76.1195ZM26.345 34.2068L24.86 42.9607H29.0677C31.9206 42.9607 33.0928 39.4178 31.0606 38.2062C32.7932 36.6037 31.9075 34.1942 30.0447 34.168L26.345 34.2068ZM28.0514 39.4304L27.7517 40.8765H28.7288C29.8359 40.9285 29.7058 39.4304 29.0677 39.4304H28.0514ZM28.5462 36.291L28.299 37.4637L28.5986 37.4764C29.4975 37.5283 30.0185 36.291 28.9371 36.291H28.5462ZM32.0114 42.9738H34.5647L35.3333 41.4364H38.2251L38.6548 43H41.0124L38.9676 34.2588H36.5575L32.0114 42.9738ZM36.1671 39.5999H37.7565L37.2485 37.2938L36.1671 39.5999ZM41.8204 43H44.1785L44.7772 37.5157L48.1512 42.9738H50.6782L51.7334 34.2064H49.3758L48.7115 39.6907L45.3371 34.1802H42.9014L41.8204 43ZM53.4271 34.1806L51.7727 42.9738H54.2609L54.9252 39.6907L57.1526 42.9738H60.4222L57.2308 38.3621L61.3084 34.1675H58.1428L55.355 37.2676L55.7978 34.1675L53.4271 34.1806Z" fill="black"/>
</svg>
