<svg width="58" height="64" viewBox="0 0 58 64" fill="none" xmlns="http://www.w3.org/2000/svg">
<path d="M0 27.5434H5.69947C8.26142 32.009 11.9559 35.7148 16.4076 38.2842V44C12.6007 42.6977 9.1422 40.5369 6.29811 37.6836C3.45402 34.8303 1.30009 31.3606 0.00199268 27.5414" fill="#00AFAA"/>
<path d="M16.4076 27.5433V38.2861C11.9563 35.7159 8.26254 32.0094 5.70142 27.5433H16.4076Z" fill="#00539B"/>
<path d="M16.4076 27.5433H5.69944C4.3461 25.1841 3.33271 22.6444 2.68945 20H8.88661C9.87418 19.9997 10.8521 20.1947 11.7646 20.5736C12.6771 20.9526 13.5062 21.5082 14.2046 22.2087C14.903 22.9092 15.4571 23.7408 15.8351 24.6561C16.213 25.5715 16.4076 26.5525 16.4076 27.5433Z" fill="#00AFAA"/>
<path d="M23.9268 35.0866V41.2998C21.2909 40.6564 18.7593 39.6411 16.4078 38.2841V27.5433C18.4021 27.5439 20.3146 28.339 21.7246 29.754C23.1347 31.169 23.9268 33.0878 23.9268 35.0886" fill="#F39A00"/>
<path d="M16.3453 20C16.7558 21.8598 17.6871 23.5633 19.0296 24.9102C20.3722 26.2571 22.0703 27.1914 23.9241 27.6032V20H16.3453Z" fill="#00AFAA"/>
<path d="M45.6931 36.9939L42.5298 32.5582V36.9939H40.1568V27.5114H42.5278V31.6575L45.3308 27.5114H47.9187L44.8749 31.8013L48.4681 36.9939H45.701H45.6931ZM53.236 35.3343C54.7808 35.3343 55.3561 34.0721 55.3561 32.2707C55.3561 30.649 54.8883 29.3148 53.3076 29.3148C52.4456 29.3148 51.7967 29.5305 51.3308 29.928C51.2233 30.5411 51.2572 31.5137 51.2572 32.1249C51.2572 34.0721 51.8683 35.3343 53.234 35.3343H53.236ZM51.078 28.3762C51.8645 27.7436 52.8372 27.389 53.8451 27.3676C56.5406 27.3676 57.8266 29.2789 57.8266 32.019C57.8266 35.4801 55.8856 37.2476 53.0827 37.2476C50.3155 37.2476 48.8046 35.4801 48.8046 31.4059C48.8046 28.0107 49.569 25.682 50.7455 24.5916C52.0873 23.3473 52.5074 23.3653 54.088 22.9679C55.0595 22.7162 55.9931 22.5684 56.3515 22.4266L57.2134 24.3739C56.7456 24.6635 55.8836 24.8432 54.1597 25.2027C52.1829 25.6021 51.283 26.2832 51.068 28.3762H51.078ZM36.4043 29.3129V36.9939H34.0831V29.3148H31.6027V27.5174H38.9027V29.3148H36.4202L36.4043 29.3129Z" fill="#00539B"/>
</svg>
