<svg width="48" height="64" viewBox="0 0 48 64" fill="none" xmlns="http://www.w3.org/2000/svg">
<path fill-rule="evenodd" clip-rule="evenodd" d="M3.22003 22L2.41452 24.2065H13.5771L14.3826 22H3.22003ZM2.01152 25.3092L1.206 27.5151H12.3686L13.1741 25.3092H2.01152ZM0.805511 28.6184L0 30.8243H11.1626L11.9676 28.6184H0.805511Z" fill="#009FDF"/>
<mask id="mask0" mask-type="alpha" maskUnits="userSpaceOnUse" x="16" y="25" width="32" height="14">
<path d="M16.7474 38.8675H47.3037V25.3516H16.7474V38.8675Z" fill="#3F5368"/>
</mask>
<g mask="url(#mask0)">
<path fill-rule="evenodd" clip-rule="evenodd" d="M23.7309 31.6651V31.7117C24.241 31.8989 24.7283 32.2263 24.9837 32.4366C25.7725 33.0914 26.1207 33.9565 26.1207 35.079C26.1207 36.9268 25.1461 38.2595 23.5451 38.6806C23.0578 38.8207 22.5477 38.8678 21.596 38.8678H16.7474V25.3516H21.0396C21.9213 25.3516 22.5244 25.3981 23.0578 25.5383C24.6126 25.9594 25.6334 27.0352 25.6334 28.7419C25.6334 29.6541 25.3085 30.4261 24.775 30.9402C24.5431 31.174 24.2182 31.4549 23.7309 31.6651ZM19.4387 33.0914V36.646H21.295C21.8513 36.646 22.3619 36.5994 22.7335 36.2485C23.1045 35.8975 23.267 35.4534 23.267 34.8687C23.267 34.4246 23.1507 34.0036 22.9188 33.6997C22.5244 33.2086 22.0371 33.0914 21.2021 33.0914H19.4387ZM19.4153 30.753H20.9234C21.3873 30.753 21.6193 30.753 21.8513 30.6829C22.4782 30.4956 22.8726 29.9349 22.8726 29.1629C22.8726 28.2513 22.4548 27.8533 21.8513 27.6665C21.596 27.5964 21.3412 27.5729 20.8305 27.5729H19.4153V30.753ZM30.1576 38.8678V27.6195H26.2831V25.3516H37.0487L36.2833 27.6195H32.8489V38.8678H30.1576ZM37.8837 38.8678V25.3516H46.6078L45.8423 27.6195H40.5522V30.6128H42.7099C44.45 30.6128 45.355 31.0338 45.9814 31.5715C46.4687 31.9925 47.3037 32.9277 47.3037 34.7756C47.3037 36.5994 46.4453 37.6047 45.7261 38.1193C44.8911 38.7036 44.0094 38.8678 42.2227 38.8678H37.8837ZM40.5522 36.5994H42.5709C43.3363 36.5994 43.8003 36.4122 44.1251 35.9911C44.2876 35.7809 44.5195 35.4064 44.5195 34.705C44.5195 34.0036 44.2876 33.5125 43.8236 33.1615C43.5454 32.9513 43.1739 32.8346 42.5475 32.8346H40.5522V36.5994Z" fill="#0A2973"/>
</g>
</svg>
