<svg width="74" height="27" viewBox="0 0 74 27" fill="none" xmlns="http://www.w3.org/2000/svg">
<path d="M13.6915 25.5075C15.5205 19.9145 19.9196 15.5165 25.526 13.688C25.9086 13.5566 26.1118 13.1502 25.9803 12.7678C25.9086 12.5527 25.7412 12.3854 25.526 12.3137C19.9196 10.4852 15.5325 6.09915 13.6915 0.494137C13.56 0.111706 13.1536 -0.0914605 12.7711 0.0400002C12.5559 0.111706 12.3885 0.27902 12.3168 0.494137C10.4879 6.09915 6.08876 10.4852 0.494264 12.3137C0.111735 12.4451 -0.091484 12.8514 0.0400105 13.2339C0.111735 13.449 0.279092 13.6163 0.494264 13.688C6.08876 15.5165 10.4879 19.9145 12.3168 25.5075C12.4483 25.89 12.8667 26.0812 13.2373 25.9497C13.4525 25.89 13.6198 25.7226 13.6915 25.5075Z" fill="url(#paint0_radial)"/>
<path opacity="0.8" d="M0.494141 13.688C6.08864 15.5165 10.4877 19.9144 12.3167 25.5075C12.4482 25.8899 12.8546 26.0931 13.2372 25.9616C13.4523 25.8899 13.6197 25.7226 13.6914 25.5075C15.5204 19.9144 19.9195 15.5165 25.514 13.688C22.8602 14.5485 18.3774 15.2416 13.01 15.2416C7.64266 15.2416 3.14794 14.5604 0.494141 13.688Z" fill="url(#paint1_radial)"/>
<path d="M50.1754 22.46C49.7092 23.3324 49.0757 23.2726 48.3823 23.2726V26.1887C48.3823 26.1887 48.9561 26.2962 49.8049 26.2962C51.1676 26.2962 52.3272 25.7106 53.0205 24.1809C53.7258 22.6512 53.8334 19.8069 54.18 16.6877H57.5391V25.9975H60.7787V13.9031H51.2513C50.8807 17.9306 50.6895 21.5158 50.1754 22.46Z" fill="black"/>
<path d="M41.8913 13.605C38.843 13.605 36.6076 15.553 36.0816 18.5527H34.4319V13.8918H31.1924V25.9981H34.4319V21.3373H36.0816C36.6076 24.337 38.843 26.285 41.8913 26.285C45.3938 26.285 47.8205 23.7155 47.8205 19.939C47.8205 16.1625 45.3938 13.605 41.8913 13.605ZM41.8913 23.3809C40.2296 23.3809 39.106 22.0543 39.106 19.9509C39.106 17.8476 40.2296 16.521 41.8913 16.521C43.5529 16.521 44.6766 17.8476 44.6766 19.9509C44.6766 22.0543 43.5529 23.3809 41.8913 23.3809Z" fill="black"/>
<path d="M68.2857 13.6042C66.648 13.6042 65.082 13.8194 63.7192 14.2735V17.1537C63.7192 17.1537 65.4645 16.4964 67.8434 16.4964C70.5091 16.4964 70.7841 17.8349 70.7841 18.4683V18.6954C70.7841 18.6954 69.4691 18.4802 68.0824 18.4802C63.6236 18.4802 62.7031 20.7987 62.7031 22.3882C62.7031 23.9777 63.6953 26.2962 67.2098 26.2962C69.0388 26.2962 70.3059 25.4477 70.9156 24.7426H71.0471V26.0094H73.9997V19.2212C74.0117 17.0939 73.5335 13.6042 68.2857 13.6042ZM70.796 22.2926C70.796 22.2926 69.9473 23.5953 67.9988 23.5953C66.7914 23.5953 66.2176 23.0575 66.2176 22.2807C66.2176 21.5158 66.8392 20.7987 69.0029 20.7987C70.019 20.7987 70.808 20.8107 70.808 20.8107V22.2926H70.796Z" fill="black"/>
<defs>
<radialGradient id="paint0_radial" cx="0" cy="0" r="1" gradientUnits="userSpaceOnUse" gradientTransform="translate(25.2777 -0.551587) scale(29.0015 28.9941)">
<stop offset="0.2281" stop-color="#0FFDFC"/>
<stop offset="0.3096" stop-color="#20F0FC"/>
<stop offset="0.4716" stop-color="#4DCFFC"/>
<stop offset="0.699" stop-color="#9598FD"/>
<stop offset="0.9531" stop-color="#EE56FD"/>
</radialGradient>
<radialGradient id="paint1_radial" cx="0" cy="0" r="1" gradientUnits="userSpaceOnUse" gradientTransform="translate(21.8045 14.7338) scale(16.3891 16.3848)">
<stop stop-color="#063BF0"/>
<stop offset="0.0917624" stop-color="#103CF1" stop-opacity="0.9082"/>
<stop offset="0.2493" stop-color="#2C3FF2" stop-opacity="0.7507"/>
<stop offset="0.4536" stop-color="#5945F5" stop-opacity="0.5464"/>
<stop offset="0.6969" stop-color="#974CF8" stop-opacity="0.3031"/>
<stop offset="0.9701" stop-color="#E555FC" stop-opacity="0.0298597"/>
<stop offset="1" stop-color="#EE56FD" stop-opacity="0"/>
</radialGradient>
</defs>
</svg>
