<?xml version="1.0" encoding="UTF-8"?>
<svg width="80px" height="80px" viewBox="0 0 80 80" version="1.1" xmlns="http://www.w3.org/2000/svg" xmlns:xlink="http://www.w3.org/1999/xlink">
    <!-- Generator: Sketch 47.1 (45422) - http://www.bohemiancoding.com/sketch -->
    <title>ООП</title>
    <desc>Created with Sketch.</desc>
    <defs></defs>
    <g id="Page-1" stroke="none" stroke-width="1" fill="none" fill-rule="evenodd">
        <g id="Для-сайта" transform="translate(-560.000000, -1255.000000)" fill="#FFFFFF">
            <g id="Group-26" transform="translate(560.000000, 1255.000000)">
                <g id="Group-27">
                    <path d="M30,40.3970588 C30,42.1216664 29.6731215,43.6336833 29.0193548,44.9331551 C28.3655881,46.2326268 27.4301136,47.2352906 26.2129032,47.9411765 C24.9956928,48.6470624 23.6000079,49 22.0258065,49 C20.4688094,49 19.079576,48.651073 17.8580645,47.9532086 C16.636553,47.2553441 15.6903259,46.2586963 15.0193548,44.9632353 C14.3483837,43.6677743 14.0086022,42.1778159 14,40.4933155 L14,39.6270053 C14,37.9023978 14.33333,36.3843648 15,35.072861 C15.66667,33.7613571 16.6085961,32.7546827 17.8258065,32.0528075 C19.0430168,31.3509323 20.4344008,31 22,31 C23.5655992,31 24.9569832,31.3509323 26.1741935,32.0528075 C27.3914039,32.7546827 28.33333,33.7613571 29,35.072861 C29.66667,36.3843648 30,37.8983871 30,39.6149733 L30,40.3970588 Z M48,40.3970588 C48,42.1216664 47.6731215,43.6336833 47.0193548,44.9331551 C46.3655881,46.2326268 45.4301136,47.2352906 44.2129032,47.9411765 C42.9956928,48.6470624 41.6000079,49 40.0258065,49 C38.4688094,49 37.079576,48.651073 35.8580645,47.9532086 C34.636553,47.2553441 33.6903259,46.2586963 33.0193548,44.9632353 C32.3483837,43.6677743 32.0086022,42.1778159 32,40.4933155 L32,39.6270053 C32,37.9023978 32.33333,36.3843648 33,35.072861 C33.66667,33.7613571 34.6085961,32.7546827 35.8258065,32.0528075 C37.0430168,31.3509323 38.4344008,31 40,31 C41.5655992,31 42.9569832,31.3509323 44.1741935,32.0528075 C45.3914039,32.7546827 46.33333,33.7613571 47,35.072861 C47.66667,36.3843648 48,37.8983871 48,39.6149733 L48,40.3970588 Z M61,34 L55,34 L55,49 L51,49 L51,31 L53,31 L63,31 L65,31 L65,49 L61,49 L61,34 Z M26,39.5928144 L26,40.4431138 C25.9915611,42.2554981 25.645573,43.6347258 24.9620253,44.5808383 C24.2784776,45.5269508 23.2995844,46 22.0253165,46 C20.7257319,46 19.7299613,45.5089869 19.0379747,44.5269461 C18.3459881,43.5449053 18,42.1636816 18,40.3832335 L18,39.5329341 C18.0084389,37.7205498 18.3586463,36.3453141 19.0506329,35.4071856 C19.7426195,34.4690572 20.725732,34 22,34 C23.2827068,34 24.2700387,34.4750451 24.9620253,35.4251497 C25.6540119,36.3752543 26,37.7644619 26,39.5928144 Z M44,39.5928144 L44,40.4431138 C43.9915611,42.2554981 43.645573,43.6347258 42.9620253,44.5808383 C42.2784776,45.5269508 41.2995844,46 40.0253165,46 C38.7257319,46 37.7299613,45.5089869 37.0379747,44.5269461 C36.3459881,43.5449053 36,42.1636816 36,40.3832335 L36,39.5329341 C36.0084389,37.7205498 36.3586463,36.3453141 37.0506329,35.4071856 C37.7426195,34.4690572 38.725732,34 40,34 C41.2827068,34 42.2700387,34.4750451 42.9620253,35.4251497 C43.6540119,36.3752543 44,37.7644619 44,39.5928144 Z" id="Combined-Shape"></path>
                </g>
            </g>
        </g>
    </g>
</svg>